<?xml version="1.0" standalone="no"?>
 <!DOCTYPE svg PUBLIC "-//W3C//DTD SVG 1.1//EN" 
 "http://www.w3.org/Graphics/SVG/1.1/DTD/svg11.dtd"> 
<svg
  xmlns:svg="http://www.w3.org/2000/svg"
  xmlns="http://www.w3.org/2000/svg"
  xmlns:xlink="http://www.w3.org/1999/xlink"
  version="1.1"
  width="367.5126mm" height="200.6600mm" viewBox="0.0000 0.0000 367.5126 200.6600">
<title>SVG Image created as feza_fcu_pcb-B_Mask.svg date 2025/01/05 18:53:11 </title>
  <desc>Image generated by PCBNEW </desc>
<g style="fill:#000000; fill-opacity:1.0000;stroke:#000000; stroke-opacity:1.0000;
stroke-linecap:round; stroke-linejoin:round;"
 transform="translate(0 0) scale(1 1)">
</g>
<g style="fill:#02FFEE; fill-opacity:0.4000; stroke:none;">
<circle cx="192.8250" cy="23.1563" r="0.3250" /> 
</g>
<g style="fill:#02FFEE; fill-opacity:0.4000; stroke:none;">
<circle cx="187.0450" cy="23.1563" r="0.3250" /> 
</g>
<g style="fill:none; 
stroke:#02FFEE; stroke-width:1.0000; stroke-opacity:1; 
stroke-linecap:round; stroke-linejoin:round;">
<path d="M194.2550 24.2063
L194.2550 23.1063
" />
<path d="M194.2550 19.8763
L194.2550 19.0763
" />
<path d="M185.6150 24.2063
L185.6150 23.1063
" />
<path d="M185.6150 19.8763
L185.6150 19.0763
" />
</g>
<g style="fill:#02FFEE; fill-opacity:0.4000; stroke:none;">
<circle cx="180.2150" cy="23.1563" r="0.3250" /> 
</g>
<g style="fill:#02FFEE; fill-opacity:0.4000; stroke:none;">
<circle cx="174.4350" cy="23.1563" r="0.3250" /> 
</g>
<g style="fill:none; 
stroke:#02FFEE; stroke-width:1.0000; stroke-opacity:1; 
stroke-linecap:round; stroke-linejoin:round;">
<path d="M181.6450 24.2063
L181.6450 23.1063
" />
<path d="M181.6450 19.8763
L181.6450 19.0763
" />
<path d="M173.0050 24.2063
L173.0050 23.1063
" />
<path d="M173.0050 19.8763
L173.0050 19.0763
" />
</g>
<g style="fill:#02FFEE; fill-opacity:0.4000; stroke:none;">
<circle cx="235.1500" cy="93.2913" r="0.4500" /> 
</g>
<g style="fill:#02FFEE; fill-opacity:0.4000; stroke:none;">
<circle cx="236.4000" cy="93.2913" r="0.4500" /> 
</g>
<g style="fill:#02FFEE; fill-opacity:0.4000; stroke:none;">
<circle cx="237.6500" cy="93.2913" r="0.4500" /> 
</g>
<g style="fill:#02FFEE; fill-opacity:0.4000; stroke:none;">
<circle cx="238.9000" cy="93.2913" r="0.4500" /> 
</g>
<g style="fill:#02FFEE; fill-opacity:0.4000; stroke:none;">
<circle cx="129.1425" cy="22.4288" r="3.1020" /> 
<path style="fill:#02FFEE; fill-opacity:0.4000; stroke:none;fill-rule:evenodd;"
d="M 139.4445,25.4288
139.4368,25.4679
139.4147,25.5009
139.3816,25.5231
139.3425,25.5308
133.3425,25.5308
133.3035,25.5231
133.2704,25.5009
133.2483,25.4679
133.2405,25.4288
133.2405,19.4288
133.2483,19.3898
133.2704,19.3567
133.3035,19.3346
133.3425,19.3268
139.3425,19.3268
139.3816,19.3346
139.4147,19.3567
139.4368,19.3898
139.4445,19.4288
Z" /> 
</g>
<g style="fill:#02FFEE; fill-opacity:0.4000; stroke:none;">
<circle cx="248.8250" cy="21.8763" r="0.4000" /> 
</g>
<g style="fill:#02FFEE; fill-opacity:0.4000; stroke:none;">
<circle cx="249.5280" cy="20.1793" r="0.4000" /> 
</g>
<g style="fill:#02FFEE; fill-opacity:0.4000; stroke:none;">
<circle cx="249.5280" cy="23.5734" r="0.4000" /> 
</g>
<g style="fill:#02FFEE; fill-opacity:0.4000; stroke:none;">
<circle cx="251.2250" cy="19.4763" r="0.4000" /> 
</g>
<g style="fill:#02FFEE; fill-opacity:0.4000; stroke:none;">
<circle cx="251.2250" cy="21.8763" r="3.2000" /> 
</g>
<g style="fill:#02FFEE; fill-opacity:0.4000; stroke:none;">
<circle cx="251.2250" cy="24.2763" r="0.4000" /> 
</g>
<g style="fill:#02FFEE; fill-opacity:0.4000; stroke:none;">
<circle cx="252.9221" cy="20.1793" r="0.4000" /> 
</g>
<g style="fill:#02FFEE; fill-opacity:0.4000; stroke:none;">
<circle cx="252.9221" cy="23.5734" r="0.4000" /> 
</g>
<g style="fill:#02FFEE; fill-opacity:0.4000; stroke:none;">
<circle cx="253.6250" cy="21.8763" r="0.4000" /> 
</g>
<g style="fill:#02FFEE; fill-opacity:0.4000; stroke:none;">
<circle cx="205.3350" cy="23.1563" r="0.3250" /> 
</g>
<g style="fill:#02FFEE; fill-opacity:0.4000; stroke:none;">
<circle cx="199.5550" cy="23.1563" r="0.3250" /> 
</g>
<g style="fill:none; 
stroke:#02FFEE; stroke-width:1.0000; stroke-opacity:1; 
stroke-linecap:round; stroke-linejoin:round;">
<path d="M206.7650 24.2063
L206.7650 23.1063
" />
<path d="M206.7650 19.8763
L206.7650 19.0763
" />
<path d="M198.1250 24.2063
L198.1250 23.1063
" />
<path d="M198.1250 19.8763
L198.1250 19.0763
" />
</g>
<g style="fill:#02FFEE; fill-opacity:0.4000; stroke:none;">
<circle cx="152.1250" cy="93.2263" r="0.4500" /> 
</g>
<g style="fill:#02FFEE; fill-opacity:0.4000; stroke:none;">
<circle cx="153.3750" cy="93.2263" r="0.4500" /> 
</g>
<g style="fill:#02FFEE; fill-opacity:0.4000; stroke:none;">
<circle cx="154.6250" cy="93.2263" r="0.4500" /> 
</g>
<g style="fill:#02FFEE; fill-opacity:0.4000; stroke:none;">
<circle cx="155.8750" cy="93.2263" r="0.4500" /> 
</g>
<g style="fill:#02FFEE; fill-opacity:0.4000; stroke:none;">
<circle cx="157.1250" cy="93.2263" r="0.4500" /> 
</g>
<g style="fill:#02FFEE; fill-opacity:0.4000; stroke:none;">
<circle cx="158.3750" cy="93.2263" r="0.4500" /> 
</g>
<g style="fill:#02FFEE; fill-opacity:0.4000; stroke:none;">
<circle cx="222.7000" cy="93.2713" r="0.4500" /> 
</g>
<g style="fill:#02FFEE; fill-opacity:0.4000; stroke:none;">
<circle cx="223.9500" cy="93.2713" r="0.4500" /> 
</g>
<g style="fill:#02FFEE; fill-opacity:0.4000; stroke:none;">
<circle cx="225.2000" cy="93.2713" r="0.4500" /> 
</g>
<g style="fill:#02FFEE; fill-opacity:0.4000; stroke:none;">
<circle cx="226.4500" cy="93.2713" r="0.4500" /> 
<path style="fill:#02FFEE; fill-opacity:0.4000; stroke:none;fill-rule:evenodd;"
d="M 144.7380,23.9413
144.7458,23.9023
144.7679,23.8692
144.8010,23.8471
144.8400,23.8393
146.2100,23.8393
146.2491,23.8471
146.2822,23.8692
146.3043,23.9023
146.3120,23.9413
146.3120,25.3113
146.3043,25.3504
146.2822,25.3834
146.2491,25.4056
146.2100,25.4133
144.8400,25.4133
144.8010,25.4056
144.7679,25.3834
144.7458,25.3504
144.7380,25.3113
Z" /> 
</g>
<g style="fill:#02FFEE; fill-opacity:0.4000; stroke:none;">
<circle cx="145.5250" cy="22.0863" r="0.7870" /> 
</g>
<g style="fill:#02FFEE; fill-opacity:0.4000; stroke:none;">
<circle cx="145.5250" cy="19.5463" r="0.7870" /> 
</g>
<g style="fill:#02FFEE; fill-opacity:0.4000; stroke:none;">
<circle cx="148.0650" cy="24.6263" r="0.7870" /> 
</g>
<g style="fill:#02FFEE; fill-opacity:0.4000; stroke:none;">
<circle cx="148.0650" cy="22.0863" r="0.7870" /> 
</g>
<g style="fill:#02FFEE; fill-opacity:0.4000; stroke:none;">
<circle cx="148.0650" cy="19.5463" r="0.7870" /> 
</g>
<g style="fill:#02FFEE; fill-opacity:0.4000; stroke:none;">
<circle cx="150.6050" cy="24.6263" r="0.7870" /> 
</g>
<g style="fill:#02FFEE; fill-opacity:0.4000; stroke:none;">
<circle cx="150.6050" cy="22.0863" r="0.7870" /> 
</g>
<g style="fill:#02FFEE; fill-opacity:0.4000; stroke:none;">
<circle cx="150.6050" cy="19.5463" r="0.7870" /> 
</g>
<g style="fill:#02FFEE; fill-opacity:0.4000; stroke:none;">
<circle cx="153.1450" cy="24.6263" r="0.7870" /> 
</g>
<g style="fill:#02FFEE; fill-opacity:0.4000; stroke:none;">
<circle cx="153.1450" cy="22.0863" r="0.7870" /> 
</g>
<g style="fill:#02FFEE; fill-opacity:0.4000; stroke:none;">
<circle cx="153.1450" cy="19.5463" r="0.7870" /> 
</g>
<g style="fill:#02FFEE; fill-opacity:0.4000; stroke:none;">
<circle cx="155.6850" cy="24.6263" r="0.7870" /> 
</g>
<g style="fill:#02FFEE; fill-opacity:0.4000; stroke:none;">
<circle cx="155.6850" cy="22.0863" r="0.7870" /> 
</g>
<g style="fill:#02FFEE; fill-opacity:0.4000; stroke:none;">
<circle cx="155.6850" cy="19.5463" r="0.7870" /> 
</g>
<g style="fill:#02FFEE; fill-opacity:0.4000; stroke:none;">
<circle cx="158.2250" cy="24.6263" r="0.7870" /> 
</g>
<g style="fill:#02FFEE; fill-opacity:0.4000; stroke:none;">
<circle cx="158.2250" cy="22.0863" r="0.7870" /> 
</g>
<g style="fill:#02FFEE; fill-opacity:0.4000; stroke:none;">
<circle cx="158.2250" cy="19.5463" r="0.7870" /> 
</g>
<g style="fill:#02FFEE; fill-opacity:0.4000; stroke:none;">
<circle cx="160.7650" cy="24.6263" r="0.7870" /> 
</g>
<g style="fill:#02FFEE; fill-opacity:0.4000; stroke:none;">
<circle cx="160.7650" cy="22.0863" r="0.7870" /> 
</g>
<g style="fill:#02FFEE; fill-opacity:0.4000; stroke:none;">
<circle cx="160.7650" cy="19.5463" r="0.7870" /> 
</g>
<g style="fill:#02FFEE; fill-opacity:0.4000; stroke:none;">
<circle cx="163.3050" cy="24.6263" r="0.7870" /> 
</g>
<g style="fill:#02FFEE; fill-opacity:0.4000; stroke:none;">
<circle cx="163.3050" cy="22.0863" r="0.7870" /> 
</g>
<g style="fill:#02FFEE; fill-opacity:0.4000; stroke:none;">
<circle cx="163.3050" cy="19.5463" r="0.7870" /> 
</g>
<g style="fill:#02FFEE; fill-opacity:0.4000; stroke:none;">
<circle cx="165.8450" cy="24.6263" r="0.7870" /> 
</g>
<g style="fill:#02FFEE; fill-opacity:0.4000; stroke:none;">
<circle cx="165.8450" cy="22.0863" r="0.7870" /> 
</g>
<g style="fill:#02FFEE; fill-opacity:0.4000; stroke:none;">
<circle cx="165.8450" cy="19.5463" r="0.7870" /> 
</g>
<g style="fill:#02FFEE; fill-opacity:0.4000; stroke:none;">
<circle cx="168.3850" cy="24.6263" r="0.7870" /> 
</g>
<g style="fill:#02FFEE; fill-opacity:0.4000; stroke:none;">
<circle cx="168.3850" cy="22.0863" r="0.7870" /> 
</g>
<g style="fill:#02FFEE; fill-opacity:0.4000; stroke:none;">
<circle cx="168.3850" cy="19.5463" r="0.7870" /> 
</g>
<g style="fill:#02FFEE; fill-opacity:0.4000; stroke:none;">
<circle cx="217.9350" cy="23.1563" r="0.3250" /> 
</g>
<g style="fill:#02FFEE; fill-opacity:0.4000; stroke:none;">
<circle cx="212.1550" cy="23.1563" r="0.3250" /> 
</g>
<g style="fill:none; 
stroke:#02FFEE; stroke-width:1.0000; stroke-opacity:1; 
stroke-linecap:round; stroke-linejoin:round;">
<path d="M219.3650 24.2063
L219.3650 23.1063
" />
<path d="M219.3650 19.8763
L219.3650 19.0763
" />
<path d="M210.7250 24.2063
L210.7250 23.1063
" />
<path d="M210.7250 19.8763
L210.7250 19.0763
" />
</g>
<g style="fill:#02FFEE; fill-opacity:0.4000; stroke:none;">
<circle cx="248.8250" cy="93.8763" r="0.4000" /> 
</g>
<g style="fill:#02FFEE; fill-opacity:0.4000; stroke:none;">
<circle cx="249.5280" cy="92.1793" r="0.4000" /> 
</g>
<g style="fill:#02FFEE; fill-opacity:0.4000; stroke:none;">
<circle cx="249.5280" cy="95.5734" r="0.4000" /> 
</g>
<g style="fill:#02FFEE; fill-opacity:0.4000; stroke:none;">
<circle cx="251.2250" cy="91.4763" r="0.4000" /> 
</g>
<g style="fill:#02FFEE; fill-opacity:0.4000; stroke:none;">
<circle cx="251.2250" cy="93.8763" r="3.2000" /> 
</g>
<g style="fill:#02FFEE; fill-opacity:0.4000; stroke:none;">
<circle cx="251.2250" cy="96.2763" r="0.4000" /> 
</g>
<g style="fill:#02FFEE; fill-opacity:0.4000; stroke:none;">
<circle cx="252.9221" cy="92.1793" r="0.4000" /> 
</g>
<g style="fill:#02FFEE; fill-opacity:0.4000; stroke:none;">
<circle cx="252.9221" cy="95.5734" r="0.4000" /> 
</g>
<g style="fill:#02FFEE; fill-opacity:0.4000; stroke:none;">
<circle cx="253.6250" cy="93.8763" r="0.4000" /> 
</g>
<g style="fill:#02FFEE; fill-opacity:0.4000; stroke:none;">
<circle cx="116.8250" cy="93.8763" r="0.4000" /> 
</g>
<g style="fill:#02FFEE; fill-opacity:0.4000; stroke:none;">
<circle cx="117.5280" cy="92.1793" r="0.4000" /> 
</g>
<g style="fill:#02FFEE; fill-opacity:0.4000; stroke:none;">
<circle cx="117.5280" cy="95.5734" r="0.4000" /> 
</g>
<g style="fill:#02FFEE; fill-opacity:0.4000; stroke:none;">
<circle cx="119.2250" cy="91.4763" r="0.4000" /> 
</g>
<g style="fill:#02FFEE; fill-opacity:0.4000; stroke:none;">
<circle cx="119.2250" cy="93.8763" r="3.2000" /> 
</g>
<g style="fill:#02FFEE; fill-opacity:0.4000; stroke:none;">
<circle cx="119.2250" cy="96.2763" r="0.4000" /> 
</g>
<g style="fill:#02FFEE; fill-opacity:0.4000; stroke:none;">
<circle cx="120.9221" cy="92.1793" r="0.4000" /> 
</g>
<g style="fill:#02FFEE; fill-opacity:0.4000; stroke:none;">
<circle cx="120.9221" cy="95.5734" r="0.4000" /> 
</g>
<g style="fill:#02FFEE; fill-opacity:0.4000; stroke:none;">
<circle cx="121.6250" cy="93.8763" r="0.4000" /> 
<path style="fill:#02FFEE; fill-opacity:0.4000; stroke:none;fill-rule:evenodd;"
d="M 120.6825,68.9038
119.5825,68.9038
119.5825,67.8038
120.6825,67.8038
Z" /> 
</g>
<g style="fill:#02FFEE; fill-opacity:0.4000; stroke:none;">
<circle cx="120.1325" cy="69.6038" r="0.5500" /> 
<path style="fill:#02FFEE; fill-opacity:0.4000; stroke:none;fill-rule:evenodd;"
d="M 120.6800,84.8813
119.0300,84.8813
119.0300,83.2313
120.6800,83.2313
Z" /> 
</g>
<g style="fill:#02FFEE; fill-opacity:0.4000; stroke:none;">
<circle cx="119.8550" cy="81.5163" r="0.8250" /> 
</g>
<g style="fill:#02FFEE; fill-opacity:0.4000; stroke:none;">
<circle cx="119.8550" cy="78.9763" r="0.8250" /> 
</g>
<g style="fill:#02FFEE; fill-opacity:0.4000; stroke:none;">
<circle cx="116.8250" cy="21.8763" r="0.4000" /> 
</g>
<g style="fill:#02FFEE; fill-opacity:0.4000; stroke:none;">
<circle cx="117.5280" cy="20.1793" r="0.4000" /> 
</g>
<g style="fill:#02FFEE; fill-opacity:0.4000; stroke:none;">
<circle cx="117.5280" cy="23.5734" r="0.4000" /> 
</g>
<g style="fill:#02FFEE; fill-opacity:0.4000; stroke:none;">
<circle cx="119.2250" cy="19.4763" r="0.4000" /> 
</g>
<g style="fill:#02FFEE; fill-opacity:0.4000; stroke:none;">
<circle cx="119.2250" cy="21.8763" r="3.2000" /> 
</g>
<g style="fill:#02FFEE; fill-opacity:0.4000; stroke:none;">
<circle cx="119.2250" cy="24.2763" r="0.4000" /> 
</g>
<g style="fill:#02FFEE; fill-opacity:0.4000; stroke:none;">
<circle cx="120.9221" cy="20.1793" r="0.4000" /> 
</g>
<g style="fill:#02FFEE; fill-opacity:0.4000; stroke:none;">
<circle cx="120.9221" cy="23.5734" r="0.4000" /> 
</g>
<g style="fill:#02FFEE; fill-opacity:0.4000; stroke:none;">
<circle cx="121.6250" cy="21.8763" r="0.4000" /> 
</g>
<g style="fill:#02FFEE; fill-opacity:0.4000; stroke:none;">
<circle cx="126.3350" cy="93.2363" r="0.5000" /> 
</g>
<g style="fill:#02FFEE; fill-opacity:0.4000; stroke:none;">
<circle cx="127.5850" cy="93.2363" r="0.5000" /> 
</g>
<g style="fill:#02FFEE; fill-opacity:0.4000; stroke:none;">
<circle cx="128.8350" cy="93.2363" r="0.5000" /> 
</g>
<g style="fill:#02FFEE; fill-opacity:0.4000; stroke:none;">
<circle cx="130.0850" cy="93.2363" r="0.5000" /> 
</g>
<g style="fill:#02FFEE; fill-opacity:0.4000; stroke:none;">
<circle cx="131.3350" cy="93.2363" r="0.5000" /> 
</g>
<g style="fill:#02FFEE; fill-opacity:0.4000; stroke:none;">
<circle cx="132.5850" cy="93.2363" r="0.5000" /> 
</g>
<g style="fill:#02FFEE; fill-opacity:0.4000; stroke:none;">
<circle cx="133.8350" cy="93.2363" r="0.5000" /> 
</g>
<g style="fill:#02FFEE; fill-opacity:0.4000; stroke:none;">
<circle cx="142.8775" cy="93.5638" r="1.2270" /> 
</g>
<g style="fill:#02FFEE; fill-opacity:0.4000; stroke:none;">
<circle cx="140.3375" cy="91.0238" r="1.3020" /> 
</g>
<g style="fill:#02FFEE; fill-opacity:0.4000; stroke:none;">
<circle cx="140.3375" cy="96.1038" r="1.3020" /> 
</g>
<g style="fill:#02FFEE; fill-opacity:0.4000; stroke:none;">
<circle cx="145.4175" cy="91.0238" r="1.3020" /> 
</g>
<g style="fill:#02FFEE; fill-opacity:0.4000; stroke:none;">
<circle cx="145.4175" cy="96.1038" r="1.3020" /> 
<path style="fill:#02FFEE; fill-opacity:0.4000; stroke:none;fill-rule:evenodd;"
d="M 246.7750,52.5163
246.8286,52.5270
246.8740,52.5573
246.9044,52.6027
246.9150,52.6563
246.9150,52.9363
246.9044,52.9899
246.8740,53.0353
246.8286,53.0657
246.7750,53.0763
246.4350,53.0763
246.3815,53.0657
246.3360,53.0353
246.3057,52.9899
246.2950,52.9363
246.2950,52.6563
246.3057,52.6027
246.3360,52.5573
246.3815,52.5270
246.4350,52.5163
Z" /> 
<path style="fill:#02FFEE; fill-opacity:0.4000; stroke:none;fill-rule:evenodd;"
d="M 246.7750,53.4763
246.8286,53.4870
246.8740,53.5173
246.9044,53.5627
246.9150,53.6163
246.9150,53.8963
246.9044,53.9499
246.8740,53.9953
246.8286,54.0257
246.7750,54.0363
246.4350,54.0363
246.3815,54.0257
246.3360,53.9953
246.3057,53.9499
246.2950,53.8963
246.2950,53.6163
246.3057,53.5627
246.3360,53.5173
246.3815,53.4870
246.4350,53.4763
Z" /> 
<path style="fill:#02FFEE; fill-opacity:0.4000; stroke:none;fill-rule:evenodd;"
d="M 221.6925,28.0938
221.7442,28.1041
221.7880,28.1334
221.8173,28.1772
221.8275,28.2288
221.8275,28.4988
221.8173,28.5505
221.7880,28.5943
221.7442,28.6235
221.6925,28.6338
221.3225,28.6338
221.2709,28.6235
221.2271,28.5943
221.1978,28.5505
221.1875,28.4988
221.1875,28.2288
221.1978,28.1772
221.2271,28.1334
221.2709,28.1041
221.3225,28.0938
Z" /> 
<path style="fill:#02FFEE; fill-opacity:0.4000; stroke:none;fill-rule:evenodd;"
d="M 221.6925,29.1138
221.7442,29.1241
221.7880,29.1534
221.8173,29.1972
221.8275,29.2488
221.8275,29.5188
221.8173,29.5705
221.7880,29.6143
221.7442,29.6435
221.6925,29.6538
221.3225,29.6538
221.2709,29.6435
221.2271,29.6143
221.1978,29.5705
221.1875,29.5188
221.1875,29.2488
221.1978,29.1972
221.2271,29.1534
221.2709,29.1241
221.3225,29.1138
Z" /> 
<path style="fill:#02FFEE; fill-opacity:0.4000; stroke:none;fill-rule:evenodd;"
d="M 169.7050,64.2863
169.7157,64.2327
169.7460,64.1873
169.7915,64.1570
169.8450,64.1463
170.1250,64.1463
170.1786,64.1570
170.2240,64.1873
170.2544,64.2327
170.2650,64.2863
170.2650,64.6263
170.2544,64.6799
170.2240,64.7253
170.1786,64.7557
170.1250,64.7663
169.8450,64.7663
169.7915,64.7557
169.7460,64.7253
169.7157,64.6799
169.7050,64.6263
Z" /> 
<path style="fill:#02FFEE; fill-opacity:0.4000; stroke:none;fill-rule:evenodd;"
d="M 170.6650,64.2863
170.6757,64.2327
170.7060,64.1873
170.7515,64.1570
170.8050,64.1463
171.0850,64.1463
171.1386,64.1570
171.1840,64.1873
171.2144,64.2327
171.2250,64.2863
171.2250,64.6263
171.2144,64.6799
171.1840,64.7253
171.1386,64.7557
171.0850,64.7663
170.8050,64.7663
170.7515,64.7557
170.7060,64.7253
170.6757,64.6799
170.6650,64.6263
Z" /> 
<path style="fill:#02FFEE; fill-opacity:0.4000; stroke:none;fill-rule:evenodd;"
d="M 124.5025,31.6888
124.5216,31.5932
124.5758,31.5120
124.6569,31.4579
124.7525,31.4388
125.2775,31.4388
125.3732,31.4579
125.4543,31.5120
125.5085,31.5932
125.5275,31.6888
125.5275,32.5888
125.5085,32.6845
125.4543,32.7656
125.3732,32.8198
125.2775,32.8388
124.7525,32.8388
124.6569,32.8198
124.5758,32.7656
124.5216,32.6845
124.5025,32.5888
Z" /> 
<path style="fill:#02FFEE; fill-opacity:0.4000; stroke:none;fill-rule:evenodd;"
d="M 126.3275,31.6888
126.3466,31.5932
126.4008,31.5120
126.4819,31.4579
126.5775,31.4388
127.1025,31.4388
127.1982,31.4579
127.2793,31.5120
127.3335,31.5932
127.3525,31.6888
127.3525,32.5888
127.3335,32.6845
127.2793,32.7656
127.1982,32.8198
127.1025,32.8388
126.5775,32.8388
126.4819,32.8198
126.4008,32.7656
126.3466,32.6845
126.3275,32.5888
Z" /> 
<path style="fill:#02FFEE; fill-opacity:0.4000; stroke:none;fill-rule:evenodd;"
d="M 242.7050,52.5163
242.7586,52.5270
242.8040,52.5573
242.8344,52.6027
242.8450,52.6563
242.8450,52.9363
242.8344,52.9899
242.8040,53.0353
242.7586,53.0657
242.7050,53.0763
242.3650,53.0763
242.3115,53.0657
242.2660,53.0353
242.2357,52.9899
242.2250,52.9363
242.2250,52.6563
242.2357,52.6027
242.2660,52.5573
242.3115,52.5270
242.3650,52.5163
Z" /> 
<path style="fill:#02FFEE; fill-opacity:0.4000; stroke:none;fill-rule:evenodd;"
d="M 242.7050,53.4763
242.7586,53.4870
242.8040,53.5173
242.8344,53.5627
242.8450,53.6163
242.8450,53.8963
242.8344,53.9499
242.8040,53.9953
242.7586,54.0257
242.7050,54.0363
242.3650,54.0363
242.3115,54.0257
242.2660,53.9953
242.2357,53.9499
242.2250,53.8963
242.2250,53.6163
242.2357,53.5627
242.2660,53.5173
242.3115,53.4870
242.3650,53.4763
Z" /> 
<path style="fill:#02FFEE; fill-opacity:0.4000; stroke:none;fill-rule:evenodd;"
d="M 245.7650,52.5163
245.8186,52.5270
245.8640,52.5573
245.8944,52.6027
245.9050,52.6563
245.9050,52.9363
245.8944,52.9899
245.8640,53.0353
245.8186,53.0657
245.7650,53.0763
245.4250,53.0763
245.3715,53.0657
245.3260,53.0353
245.2957,52.9899
245.2850,52.9363
245.2850,52.6563
245.2957,52.6027
245.3260,52.5573
245.3715,52.5270
245.4250,52.5163
Z" /> 
<path style="fill:#02FFEE; fill-opacity:0.4000; stroke:none;fill-rule:evenodd;"
d="M 245.7650,53.4763
245.8186,53.4870
245.8640,53.5173
245.8944,53.5627
245.9050,53.6163
245.9050,53.8963
245.8944,53.9499
245.8640,53.9953
245.8186,54.0257
245.7650,54.0363
245.4250,54.0363
245.3715,54.0257
245.3260,53.9953
245.2957,53.9499
245.2850,53.8963
245.2850,53.6163
245.2957,53.5627
245.3260,53.5173
245.3715,53.4870
245.4250,53.4763
Z" /> 
<path style="fill:#02FFEE; fill-opacity:0.4000; stroke:none;fill-rule:evenodd;"
d="M 169.7050,65.2863
169.7157,65.2327
169.7460,65.1873
169.7915,65.1570
169.8450,65.1463
170.1250,65.1463
170.1786,65.1570
170.2240,65.1873
170.2544,65.2327
170.2650,65.2863
170.2650,65.6263
170.2544,65.6799
170.2240,65.7253
170.1786,65.7557
170.1250,65.7663
169.8450,65.7663
169.7915,65.7557
169.7460,65.7253
169.7157,65.6799
169.7050,65.6263
Z" /> 
<path style="fill:#02FFEE; fill-opacity:0.4000; stroke:none;fill-rule:evenodd;"
d="M 170.6650,65.2863
170.6757,65.2327
170.7060,65.1873
170.7515,65.1570
170.8050,65.1463
171.0850,65.1463
171.1386,65.1570
171.1840,65.1873
171.2144,65.2327
171.2250,65.2863
171.2250,65.6263
171.2144,65.6799
171.1840,65.7253
171.1386,65.7557
171.0850,65.7663
170.8050,65.7663
170.7515,65.7557
170.7060,65.7253
170.6757,65.6799
170.6650,65.6263
Z" /> 
<path style="fill:#02FFEE; fill-opacity:0.4000; stroke:none;fill-rule:evenodd;"
d="M 180.3625,30.8438
180.4582,30.8629
180.5393,30.9170
180.5935,30.9982
180.6125,31.0938
180.6125,31.6188
180.5935,31.7145
180.5393,31.7956
180.4582,31.8498
180.3625,31.8688
179.4625,31.8688
179.3669,31.8498
179.2858,31.7956
179.2316,31.7145
179.2125,31.6188
179.2125,31.0938
179.2316,30.9982
179.2858,30.9170
179.3669,30.8629
179.4625,30.8438
Z" /> 
<path style="fill:#02FFEE; fill-opacity:0.4000; stroke:none;fill-rule:evenodd;"
d="M 180.3625,32.6688
180.4582,32.6879
180.5393,32.7420
180.5935,32.8232
180.6125,32.9188
180.6125,33.4438
180.5935,33.5395
180.5393,33.6206
180.4582,33.6748
180.3625,33.6938
179.4625,33.6938
179.3669,33.6748
179.2858,33.6206
179.2316,33.5395
179.2125,33.4438
179.2125,32.9188
179.2316,32.8232
179.2858,32.7420
179.3669,32.6879
179.4625,32.6688
Z" /> 
<path style="fill:#02FFEE; fill-opacity:0.4000; stroke:none;fill-rule:evenodd;"
d="M 128.8675,37.8038
128.8866,37.7082
128.9408,37.6270
129.0219,37.5729
129.1175,37.5538
129.6175,37.5538
129.7132,37.5729
129.7943,37.6270
129.8485,37.7082
129.8675,37.8038
129.8675,38.7538
129.8485,38.8495
129.7943,38.9306
129.7132,38.9848
129.6175,39.0038
129.1175,39.0038
129.0219,38.9848
128.9408,38.9306
128.8866,38.8495
128.8675,38.7538
Z" /> 
<path style="fill:#02FFEE; fill-opacity:0.4000; stroke:none;fill-rule:evenodd;"
d="M 130.7675,37.8038
130.7866,37.7082
130.8408,37.6270
130.9219,37.5729
131.0175,37.5538
131.5175,37.5538
131.6132,37.5729
131.6943,37.6270
131.7485,37.7082
131.7675,37.8038
131.7675,38.7538
131.7485,38.8495
131.6943,38.9306
131.6132,38.9848
131.5175,39.0038
131.0175,39.0038
130.9219,38.9848
130.8408,38.9306
130.7866,38.8495
130.7675,38.7538
Z" /> 
<path style="fill:#02FFEE; fill-opacity:0.4000; stroke:none;fill-rule:evenodd;"
d="M 248.7950,52.5263
248.8486,52.5370
248.8940,52.5673
248.9244,52.6127
248.9350,52.6663
248.9350,52.9463
248.9244,52.9999
248.8940,53.0453
248.8486,53.0757
248.7950,53.0863
248.4550,53.0863
248.4015,53.0757
248.3560,53.0453
248.3257,52.9999
248.3150,52.9463
248.3150,52.6663
248.3257,52.6127
248.3560,52.5673
248.4015,52.5370
248.4550,52.5263
Z" /> 
<path style="fill:#02FFEE; fill-opacity:0.4000; stroke:none;fill-rule:evenodd;"
d="M 248.7950,53.4863
248.8486,53.4970
248.8940,53.5273
248.9244,53.5727
248.9350,53.6263
248.9350,53.9063
248.9244,53.9599
248.8940,54.0053
248.8486,54.0357
248.7950,54.0463
248.4550,54.0463
248.4015,54.0357
248.3560,54.0053
248.3257,53.9599
248.3150,53.9063
248.3150,53.6263
248.3257,53.5727
248.3560,53.5273
248.4015,53.4970
248.4550,53.4863
Z" /> 
<path style="fill:#02FFEE; fill-opacity:0.4000; stroke:none;fill-rule:evenodd;"
d="M 223.3075,33.7363
223.2501,33.7249
223.2015,33.6924
223.1690,33.6437
223.1575,33.5863
223.1575,32.5613
223.1690,32.5039
223.2015,32.4553
223.2501,32.4227
223.3075,32.4113
223.6075,32.4113
223.6649,32.4227
223.7136,32.4553
223.7461,32.5039
223.7575,32.5613
223.7575,33.5863
223.7461,33.6437
223.7136,33.6924
223.6649,33.7249
223.6075,33.7363
Z" /> 
<path style="fill:#02FFEE; fill-opacity:0.4000; stroke:none;fill-rule:evenodd;"
d="M 222.3575,33.7363
222.3001,33.7249
222.2515,33.6924
222.2190,33.6437
222.2075,33.5863
222.2075,32.5613
222.2190,32.5039
222.2515,32.4553
222.3001,32.4227
222.3575,32.4113
222.6575,32.4113
222.7149,32.4227
222.7636,32.4553
222.7961,32.5039
222.8075,32.5613
222.8075,33.5863
222.7961,33.6437
222.7636,33.6924
222.7149,33.7249
222.6575,33.7363
Z" /> 
<path style="fill:#02FFEE; fill-opacity:0.4000; stroke:none;fill-rule:evenodd;"
d="M 221.4075,33.7363
221.3501,33.7249
221.3015,33.6924
221.2690,33.6437
221.2575,33.5863
221.2575,32.5613
221.2690,32.5039
221.3015,32.4553
221.3501,32.4227
221.4075,32.4113
221.7075,32.4113
221.7649,32.4227
221.8136,32.4553
221.8461,32.5039
221.8575,32.5613
221.8575,33.5863
221.8461,33.6437
221.8136,33.6924
221.7649,33.7249
221.7075,33.7363
Z" /> 
<path style="fill:#02FFEE; fill-opacity:0.4000; stroke:none;fill-rule:evenodd;"
d="M 221.4075,31.4613
221.3501,31.4499
221.3015,31.4174
221.2690,31.3687
221.2575,31.3113
221.2575,30.2863
221.2690,30.2289
221.3015,30.1803
221.3501,30.1477
221.4075,30.1363
221.7075,30.1363
221.7649,30.1477
221.8136,30.1803
221.8461,30.2289
221.8575,30.2863
221.8575,31.3113
221.8461,31.3687
221.8136,31.4174
221.7649,31.4499
221.7075,31.4613
Z" /> 
<path style="fill:#02FFEE; fill-opacity:0.4000; stroke:none;fill-rule:evenodd;"
d="M 222.3575,31.4613
222.3001,31.4499
222.2515,31.4174
222.2190,31.3687
222.2075,31.3113
222.2075,30.2863
222.2190,30.2289
222.2515,30.1803
222.3001,30.1477
222.3575,30.1363
222.6575,30.1363
222.7149,30.1477
222.7636,30.1803
222.7961,30.2289
222.8075,30.2863
222.8075,31.3113
222.7961,31.3687
222.7636,31.4174
222.7149,31.4499
222.6575,31.4613
Z" /> 
<path style="fill:#02FFEE; fill-opacity:0.4000; stroke:none;fill-rule:evenodd;"
d="M 223.3075,31.4613
223.2501,31.4499
223.2015,31.4174
223.1690,31.3687
223.1575,31.3113
223.1575,30.2863
223.1690,30.2289
223.2015,30.1803
223.2501,30.1477
223.3075,30.1363
223.6075,30.1363
223.6649,30.1477
223.7136,30.1803
223.7461,30.2289
223.7575,30.2863
223.7575,31.3113
223.7461,31.3687
223.7136,31.4174
223.6649,31.4499
223.6075,31.4613
Z" /> 
<path style="fill:#02FFEE; fill-opacity:0.4000; stroke:none;fill-rule:evenodd;"
d="M 195.1225,79.6593
195.0986,79.6546
195.0783,79.6410
195.0648,79.6207
195.0600,79.5968
195.0600,79.3618
195.0648,79.3379
195.0783,79.3176
195.0986,79.3041
195.1225,79.2993
195.2475,79.2993
195.2715,79.3041
195.2917,79.3176
195.3053,79.3379
195.3100,79.3618
195.3100,79.5968
195.3053,79.6207
195.2917,79.6410
195.2715,79.6546
195.2475,79.6593
Z" /> 
<path style="fill:#02FFEE; fill-opacity:0.4000; stroke:none;fill-rule:evenodd;"
d="M 195.1225,80.4993
195.0986,80.4946
195.0783,80.4810
195.0648,80.4607
195.0600,80.4368
195.0600,80.2018
195.0648,80.1779
195.0783,80.1576
195.0986,80.1441
195.1225,80.1393
195.2475,80.1393
195.2715,80.1441
195.2917,80.1576
195.3053,80.1779
195.3100,80.2018
195.3100,80.4368
195.3053,80.4607
195.2917,80.4810
195.2715,80.4946
195.2475,80.4993
Z" /> 
<path style="fill:#02FFEE; fill-opacity:0.4000; stroke:none;fill-rule:evenodd;"
d="M 247.7850,52.5263
247.8386,52.5370
247.8840,52.5673
247.9144,52.6127
247.9250,52.6663
247.9250,52.9463
247.9144,52.9999
247.8840,53.0453
247.8386,53.0757
247.7850,53.0863
247.4450,53.0863
247.3915,53.0757
247.3460,53.0453
247.3157,52.9999
247.3050,52.9463
247.3050,52.6663
247.3157,52.6127
247.3460,52.5673
247.3915,52.5370
247.4450,52.5263
Z" /> 
<path style="fill:#02FFEE; fill-opacity:0.4000; stroke:none;fill-rule:evenodd;"
d="M 247.7850,53.4863
247.8386,53.4970
247.8840,53.5273
247.9144,53.5727
247.9250,53.6263
247.9250,53.9063
247.9144,53.9599
247.8840,54.0053
247.8386,54.0357
247.7850,54.0463
247.4450,54.0463
247.3915,54.0357
247.3460,54.0053
247.3157,53.9599
247.3050,53.9063
247.3050,53.6263
247.3157,53.5727
247.3460,53.5273
247.3915,53.4970
247.4450,53.4863
Z" /> 
<path style="fill:#02FFEE; fill-opacity:0.4000; stroke:none;fill-rule:evenodd;"
d="M 214.8000,20.3363
214.7810,20.4320
214.7268,20.5131
214.6457,20.5673
214.5500,20.5863
214.0250,20.5863
213.9294,20.5673
213.8483,20.5131
213.7941,20.4320
213.7750,20.3363
213.7750,19.4363
213.7941,19.3407
213.8483,19.2595
213.9294,19.2054
214.0250,19.1863
214.5500,19.1863
214.6457,19.2054
214.7268,19.2595
214.7810,19.3407
214.8000,19.4363
Z" /> 
<path style="fill:#02FFEE; fill-opacity:0.4000; stroke:none;fill-rule:evenodd;"
d="M 212.9750,20.3363
212.9560,20.4320
212.9018,20.5131
212.8207,20.5673
212.7250,20.5863
212.2000,20.5863
212.1044,20.5673
212.0233,20.5131
211.9691,20.4320
211.9500,20.3363
211.9500,19.4363
211.9691,19.3407
212.0233,19.2595
212.1044,19.2054
212.2000,19.1863
212.7250,19.1863
212.8207,19.2054
212.9018,19.2595
212.9560,19.3407
212.9750,19.4363
Z" /> 
<path style="fill:#02FFEE; fill-opacity:0.4000; stroke:none;fill-rule:evenodd;"
d="M 213.5100,68.5713
213.5636,68.5820
213.6090,68.6123
213.6394,68.6577
213.6500,68.7113
213.6500,68.9913
213.6394,69.0449
213.6090,69.0903
213.5636,69.1207
213.5100,69.1313
213.1700,69.1313
213.1165,69.1207
213.0710,69.0903
213.0407,69.0449
213.0300,68.9913
213.0300,68.7113
213.0407,68.6577
213.0710,68.6123
213.1165,68.5820
213.1700,68.5713
Z" /> 
<path style="fill:#02FFEE; fill-opacity:0.4000; stroke:none;fill-rule:evenodd;"
d="M 213.5100,69.5313
213.5636,69.5420
213.6090,69.5723
213.6394,69.6177
213.6500,69.6713
213.6500,69.9513
213.6394,70.0049
213.6090,70.0503
213.5636,70.0807
213.5100,70.0913
213.1700,70.0913
213.1165,70.0807
213.0710,70.0503
213.0407,70.0049
213.0300,69.9513
213.0300,69.6713
213.0407,69.6177
213.0710,69.5723
213.1165,69.5420
213.1700,69.5313
Z" /> 
<path style="fill:#02FFEE; fill-opacity:0.4000; stroke:none;fill-rule:evenodd;"
d="M 124.5025,37.9138
124.5216,37.8182
124.5758,37.7370
124.6569,37.6829
124.7525,37.6638
125.2775,37.6638
125.3732,37.6829
125.4543,37.7370
125.5085,37.8182
125.5275,37.9138
125.5275,38.8138
125.5085,38.9095
125.4543,38.9906
125.3732,39.0448
125.2775,39.0638
124.7525,39.0638
124.6569,39.0448
124.5758,38.9906
124.5216,38.9095
124.5025,38.8138
Z" /> 
<path style="fill:#02FFEE; fill-opacity:0.4000; stroke:none;fill-rule:evenodd;"
d="M 126.3275,37.9138
126.3466,37.8182
126.4008,37.7370
126.4819,37.6829
126.5775,37.6638
127.1025,37.6638
127.1982,37.6829
127.2793,37.7370
127.3335,37.8182
127.3525,37.9138
127.3525,38.8138
127.3335,38.9095
127.2793,38.9906
127.1982,39.0448
127.1025,39.0638
126.5775,39.0638
126.4819,39.0448
126.4008,38.9906
126.3466,38.9095
126.3275,38.8138
Z" /> 
<path style="fill:#02FFEE; fill-opacity:0.4000; stroke:none;fill-rule:evenodd;"
d="M 168.8800,57.3063
168.9566,57.3215
169.0215,57.3649
169.0648,57.4298
169.0800,57.5063
169.0800,57.9063
169.0648,57.9829
169.0215,58.0477
168.9566,58.0911
168.8800,58.1063
168.3300,58.1063
168.2535,58.0911
168.1886,58.0477
168.1453,57.9829
168.1300,57.9063
168.1300,57.5063
168.1453,57.4298
168.1886,57.3649
168.2535,57.3215
168.3300,57.3063
Z" /> 
<path style="fill:#02FFEE; fill-opacity:0.4000; stroke:none;fill-rule:evenodd;"
d="M 168.8800,58.9563
168.9566,58.9715
169.0215,59.0149
169.0648,59.0798
169.0800,59.1563
169.0800,59.5563
169.0648,59.6329
169.0215,59.6977
168.9566,59.7411
168.8800,59.7563
168.3300,59.7563
168.2535,59.7411
168.1886,59.6977
168.1453,59.6329
168.1300,59.5563
168.1300,59.1563
168.1453,59.0798
168.1886,59.0149
168.2535,58.9715
168.3300,58.9563
Z" /> 
<path style="fill:#02FFEE; fill-opacity:0.4000; stroke:none;fill-rule:evenodd;"
d="M 169.7050,67.2863
169.7157,67.2327
169.7460,67.1873
169.7915,67.1570
169.8450,67.1463
170.1250,67.1463
170.1786,67.1570
170.2240,67.1873
170.2544,67.2327
170.2650,67.2863
170.2650,67.6263
170.2544,67.6799
170.2240,67.7253
170.1786,67.7557
170.1250,67.7663
169.8450,67.7663
169.7915,67.7557
169.7460,67.7253
169.7157,67.6799
169.7050,67.6263
Z" /> 
<path style="fill:#02FFEE; fill-opacity:0.4000; stroke:none;fill-rule:evenodd;"
d="M 170.6650,67.2863
170.6757,67.2327
170.7060,67.1873
170.7515,67.1570
170.8050,67.1463
171.0850,67.1463
171.1386,67.1570
171.1840,67.1873
171.2144,67.2327
171.2250,67.2863
171.2250,67.6263
171.2144,67.6799
171.1840,67.7253
171.1386,67.7557
171.0850,67.7663
170.8050,67.7663
170.7515,67.7557
170.7060,67.7253
170.6757,67.6799
170.6650,67.6263
Z" /> 
<path style="fill:#02FFEE; fill-opacity:0.4000; stroke:none;fill-rule:evenodd;"
d="M 231.4800,33.1913
231.3939,33.1742
231.3209,33.1254
231.2722,33.0524
231.2550,32.9663
231.2550,32.5163
231.2722,32.4302
231.3209,32.3572
231.3939,32.3084
231.4800,32.2913
231.9800,32.2913
232.0661,32.3084
232.1391,32.3572
232.1879,32.4302
232.2050,32.5163
232.2050,32.9663
232.1879,33.0524
232.1391,33.1254
232.0661,33.1742
231.9800,33.1913
Z" /> 
<path style="fill:#02FFEE; fill-opacity:0.4000; stroke:none;fill-rule:evenodd;"
d="M 231.4800,31.6413
231.3939,31.6242
231.3209,31.5754
231.2722,31.5024
231.2550,31.4163
231.2550,30.9663
231.2722,30.8802
231.3209,30.8072
231.3939,30.7584
231.4800,30.7413
231.9800,30.7413
232.0661,30.7584
232.1391,30.8072
232.1879,30.8802
232.2050,30.9663
232.2050,31.4163
232.1879,31.5024
232.1391,31.5754
232.0661,31.6242
231.9800,31.6413
Z" /> 
<path style="fill:#02FFEE; fill-opacity:0.4000; stroke:none;fill-rule:evenodd;"
d="M 177.0650,20.2838
177.0460,20.3795
176.9918,20.4606
176.9107,20.5148
176.8150,20.5338
176.2900,20.5338
176.1944,20.5148
176.1133,20.4606
176.0591,20.3795
176.0400,20.2838
176.0400,19.3838
176.0591,19.2882
176.1133,19.2070
176.1944,19.1529
176.2900,19.1338
176.8150,19.1338
176.9107,19.1529
176.9918,19.2070
177.0460,19.2882
177.0650,19.3838
Z" /> 
<path style="fill:#02FFEE; fill-opacity:0.4000; stroke:none;fill-rule:evenodd;"
d="M 175.2400,20.2838
175.2210,20.3795
175.1668,20.4606
175.0857,20.5148
174.9900,20.5338
174.4650,20.5338
174.3694,20.5148
174.2883,20.4606
174.2341,20.3795
174.2150,20.2838
174.2150,19.3838
174.2341,19.2882
174.2883,19.2070
174.3694,19.1529
174.4650,19.1338
174.9900,19.1338
175.0857,19.1529
175.1668,19.2070
175.2210,19.2882
175.2400,19.3838
Z" /> 
<path style="fill:#02FFEE; fill-opacity:0.4000; stroke:none;fill-rule:evenodd;"
d="M 236.4200,23.5313
236.3339,23.5142
236.2609,23.4654
236.2122,23.3924
236.1950,23.3063
236.1950,22.8563
236.2122,22.7702
236.2609,22.6972
236.3339,22.6484
236.4200,22.6313
236.9200,22.6313
237.0061,22.6484
237.0791,22.6972
237.1279,22.7702
237.1450,22.8563
237.1450,23.3063
237.1279,23.3924
237.0791,23.4654
237.0061,23.5142
236.9200,23.5313
Z" /> 
<path style="fill:#02FFEE; fill-opacity:0.4000; stroke:none;fill-rule:evenodd;"
d="M 236.4200,21.9813
236.3339,21.9642
236.2609,21.9154
236.2122,21.8424
236.1950,21.7563
236.1950,21.3063
236.2122,21.2202
236.2609,21.1472
236.3339,21.0984
236.4200,21.0813
236.9200,21.0813
237.0061,21.0984
237.0791,21.1472
237.1279,21.2202
237.1450,21.3063
237.1450,21.7563
237.1279,21.8424
237.0791,21.9154
237.0061,21.9642
236.9200,21.9813
Z" /> 
<path style="fill:#02FFEE; fill-opacity:0.4000; stroke:none;fill-rule:evenodd;"
d="M 200.4225,35.4063
200.4054,35.4924
200.3566,35.5654
200.2836,35.6142
200.1975,35.6313
199.7475,35.6313
199.6614,35.6142
199.5884,35.5654
199.5397,35.4924
199.5225,35.4063
199.5225,34.9063
199.5397,34.8202
199.5884,34.7472
199.6614,34.6984
199.7475,34.6813
200.1975,34.6813
200.2836,34.6984
200.3566,34.7472
200.4054,34.8202
200.4225,34.9063
Z" /> 
<path style="fill:#02FFEE; fill-opacity:0.4000; stroke:none;fill-rule:evenodd;"
d="M 198.8725,35.4063
198.8554,35.4924
198.8066,35.5654
198.7336,35.6142
198.6475,35.6313
198.1975,35.6313
198.1114,35.6142
198.0384,35.5654
197.9897,35.4924
197.9725,35.4063
197.9725,34.9063
197.9897,34.8202
198.0384,34.7472
198.1114,34.6984
198.1975,34.6813
198.6475,34.6813
198.7336,34.6984
198.8066,34.7472
198.8554,34.8202
198.8725,34.9063
Z" /> 
<path style="fill:#02FFEE; fill-opacity:0.4000; stroke:none;fill-rule:evenodd;"
d="M 169.7050,61.2863
169.7157,61.2327
169.7460,61.1873
169.7915,61.1570
169.8450,61.1463
170.1250,61.1463
170.1786,61.1570
170.2240,61.1873
170.2544,61.2327
170.2650,61.2863
170.2650,61.6263
170.2544,61.6799
170.2240,61.7253
170.1786,61.7557
170.1250,61.7663
169.8450,61.7663
169.7915,61.7557
169.7460,61.7253
169.7157,61.6799
169.7050,61.6263
Z" /> 
<path style="fill:#02FFEE; fill-opacity:0.4000; stroke:none;fill-rule:evenodd;"
d="M 170.6650,61.2863
170.6757,61.2327
170.7060,61.1873
170.7515,61.1570
170.8050,61.1463
171.0850,61.1463
171.1386,61.1570
171.1840,61.1873
171.2144,61.2327
171.2250,61.2863
171.2250,61.6263
171.2144,61.6799
171.1840,61.7253
171.1386,61.7557
171.0850,61.7663
170.8050,61.7663
170.7515,61.7557
170.7060,61.7253
170.6757,61.6799
170.6650,61.6263
Z" /> 
<path style="fill:#02FFEE; fill-opacity:0.4000; stroke:none;fill-rule:evenodd;"
d="M 169.7050,63.2863
169.7157,63.2327
169.7460,63.1873
169.7915,63.1570
169.8450,63.1463
170.1250,63.1463
170.1786,63.1570
170.2240,63.1873
170.2544,63.2327
170.2650,63.2863
170.2650,63.6263
170.2544,63.6799
170.2240,63.7253
170.1786,63.7557
170.1250,63.7663
169.8450,63.7663
169.7915,63.7557
169.7460,63.7253
169.7157,63.6799
169.7050,63.6263
Z" /> 
<path style="fill:#02FFEE; fill-opacity:0.4000; stroke:none;fill-rule:evenodd;"
d="M 170.6650,63.2863
170.6757,63.2327
170.7060,63.1873
170.7515,63.1570
170.8050,63.1463
171.0850,63.1463
171.1386,63.1570
171.1840,63.1873
171.2144,63.2327
171.2250,63.2863
171.2250,63.6263
171.2144,63.6799
171.1840,63.7253
171.1386,63.7557
171.0850,63.7663
170.8050,63.7663
170.7515,63.7557
170.7060,63.7253
170.6757,63.6799
170.6650,63.6263
Z" /> 
<path style="fill:#02FFEE; fill-opacity:0.4000; stroke:none;fill-rule:evenodd;"
d="M 214.8000,68.5713
214.8517,68.5816
214.8955,68.6109
214.9248,68.6547
214.9350,68.7063
214.9350,68.9763
214.9248,69.0280
214.8955,69.0718
214.8517,69.1010
214.8000,69.1113
214.4300,69.1113
214.3784,69.1010
214.3346,69.0718
214.3053,69.0280
214.2950,68.9763
214.2950,68.7063
214.3053,68.6547
214.3346,68.6109
214.3784,68.5816
214.4300,68.5713
Z" /> 
<path style="fill:#02FFEE; fill-opacity:0.4000; stroke:none;fill-rule:evenodd;"
d="M 214.8000,69.5913
214.8517,69.6016
214.8955,69.6309
214.9248,69.6747
214.9350,69.7263
214.9350,69.9963
214.9248,70.0480
214.8955,70.0918
214.8517,70.1210
214.8000,70.1313
214.4300,70.1313
214.3784,70.1210
214.3346,70.0918
214.3053,70.0480
214.2950,69.9963
214.2950,69.7263
214.3053,69.6747
214.3346,69.6309
214.3784,69.6016
214.4300,69.5913
Z" /> 
<path style="fill:#02FFEE; fill-opacity:0.4000; stroke:none;fill-rule:evenodd;"
d="M 130.8175,29.8913
130.8090,29.9344
130.7846,29.9709
130.7481,29.9953
130.7050,30.0038
130.3300,30.0038
130.2870,29.9953
130.2505,29.9709
130.2261,29.9344
130.2175,29.8913
130.2175,29.6663
130.2261,29.6233
130.2505,29.5868
130.2870,29.5624
130.3300,29.5538
130.7050,29.5538
130.7481,29.5624
130.7846,29.5868
130.8090,29.6233
130.8175,29.6663
Z" /> 
<path style="fill:#02FFEE; fill-opacity:0.4000; stroke:none;fill-rule:evenodd;"
d="M 128.7175,29.8913
128.7090,29.9344
128.6846,29.9709
128.6481,29.9953
128.6050,30.0038
128.2300,30.0038
128.1870,29.9953
128.1505,29.9709
128.1261,29.9344
128.1175,29.8913
128.1175,29.6663
128.1261,29.6233
128.1505,29.5868
128.1870,29.5624
128.2300,29.5538
128.6050,29.5538
128.6481,29.5624
128.6846,29.5868
128.7090,29.6233
128.7175,29.6663
Z" /> 
<path style="fill:#02FFEE; fill-opacity:0.4000; stroke:none;fill-rule:evenodd;"
d="M 226.4900,33.2013
226.4039,33.1842
226.3309,33.1354
226.2822,33.0624
226.2650,32.9763
226.2650,32.5263
226.2822,32.4402
226.3309,32.3672
226.4039,32.3184
226.4900,32.3013
226.9900,32.3013
227.0761,32.3184
227.1491,32.3672
227.1979,32.4402
227.2150,32.5263
227.2150,32.9763
227.1979,33.0624
227.1491,33.1354
227.0761,33.1842
226.9900,33.2013
Z" /> 
<path style="fill:#02FFEE; fill-opacity:0.4000; stroke:none;fill-rule:evenodd;"
d="M 226.4900,31.6513
226.4039,31.6342
226.3309,31.5854
226.2822,31.5124
226.2650,31.4263
226.2650,30.9763
226.2822,30.8902
226.3309,30.8172
226.4039,30.7684
226.4900,30.7513
226.9900,30.7513
227.0761,30.7684
227.1491,30.8172
227.1979,30.8902
227.2150,30.9763
227.2150,31.4263
227.1979,31.5124
227.1491,31.5854
227.0761,31.6342
226.9900,31.6513
Z" /> 
<path style="fill:#02FFEE; fill-opacity:0.4000; stroke:none;fill-rule:evenodd;"
d="M 241.9450,24.6463
242.0311,24.6634
242.1041,24.7122
242.1529,24.7852
242.1700,24.8713
242.1700,25.3213
242.1529,25.4074
242.1041,25.4804
242.0311,25.5292
241.9450,25.5463
241.4450,25.5463
241.3589,25.5292
241.2859,25.4804
241.2372,25.4074
241.2200,25.3213
241.2200,24.8713
241.2372,24.7852
241.2859,24.7122
241.3589,24.6634
241.4450,24.6463
Z" /> 
<path style="fill:#02FFEE; fill-opacity:0.4000; stroke:none;fill-rule:evenodd;"
d="M 241.9450,26.1963
242.0311,26.2134
242.1041,26.2622
242.1529,26.3352
242.1700,26.4213
242.1700,26.8713
242.1529,26.9574
242.1041,27.0304
242.0311,27.0792
241.9450,27.0963
241.4450,27.0963
241.3589,27.0792
241.2859,27.0304
241.2372,26.9574
241.2200,26.8713
241.2200,26.4213
241.2372,26.3352
241.2859,26.2622
241.3589,26.2134
241.4450,26.1963
Z" /> 
<path style="fill:#02FFEE; fill-opacity:0.4000; stroke:none;fill-rule:evenodd;"
d="M 212.2750,68.5513
212.3611,68.5684
212.4341,68.6172
212.4829,68.6902
212.5000,68.7763
212.5000,69.2263
212.4829,69.3124
212.4341,69.3854
212.3611,69.4342
212.2750,69.4513
211.7750,69.4513
211.6889,69.4342
211.6159,69.3854
211.5672,69.3124
211.5500,69.2263
211.5500,68.7763
211.5672,68.6902
211.6159,68.6172
211.6889,68.5684
211.7750,68.5513
Z" /> 
<path style="fill:#02FFEE; fill-opacity:0.4000; stroke:none;fill-rule:evenodd;"
d="M 212.2750,70.1013
212.3611,70.1184
212.4341,70.1672
212.4829,70.2402
212.5000,70.3263
212.5000,70.7763
212.4829,70.8624
212.4341,70.9354
212.3611,70.9842
212.2750,71.0013
211.7750,71.0013
211.6889,70.9842
211.6159,70.9354
211.5672,70.8624
211.5500,70.7763
211.5500,70.3263
211.5672,70.2402
211.6159,70.1672
211.6889,70.1184
211.7750,70.1013
Z" /> 
<path style="fill:#02FFEE; fill-opacity:0.4000; stroke:none;fill-rule:evenodd;"
d="M 127.3550,34.6288
127.3360,34.7245
127.2818,34.8056
127.2007,34.8598
127.1050,34.8788
126.5800,34.8788
126.4844,34.8598
126.4033,34.8056
126.3491,34.7245
126.3300,34.6288
126.3300,33.7288
126.3491,33.6332
126.4033,33.5520
126.4844,33.4979
126.5800,33.4788
127.1050,33.4788
127.2007,33.4979
127.2818,33.5520
127.3360,33.6332
127.3550,33.7288
Z" /> 
<path style="fill:#02FFEE; fill-opacity:0.4000; stroke:none;fill-rule:evenodd;"
d="M 125.5300,34.6288
125.5110,34.7245
125.4568,34.8056
125.3757,34.8598
125.2800,34.8788
124.7550,34.8788
124.6594,34.8598
124.5783,34.8056
124.5241,34.7245
124.5050,34.6288
124.5050,33.7288
124.5241,33.6332
124.5783,33.5520
124.6594,33.4979
124.7550,33.4788
125.2800,33.4788
125.3757,33.4979
125.4568,33.5520
125.5110,33.6332
125.5300,33.7288
Z" /> 
<path style="fill:#02FFEE; fill-opacity:0.4000; stroke:none;fill-rule:evenodd;"
d="M 244.7450,52.5163
244.7986,52.5270
244.8440,52.5573
244.8744,52.6027
244.8850,52.6563
244.8850,52.9363
244.8744,52.9899
244.8440,53.0353
244.7986,53.0657
244.7450,53.0763
244.4050,53.0763
244.3515,53.0657
244.3060,53.0353
244.2757,52.9899
244.2650,52.9363
244.2650,52.6563
244.2757,52.6027
244.3060,52.5573
244.3515,52.5270
244.4050,52.5163
Z" /> 
<path style="fill:#02FFEE; fill-opacity:0.4000; stroke:none;fill-rule:evenodd;"
d="M 244.7450,53.4763
244.7986,53.4870
244.8440,53.5173
244.8744,53.5627
244.8850,53.6163
244.8850,53.8963
244.8744,53.9499
244.8440,53.9953
244.7986,54.0257
244.7450,54.0363
244.4050,54.0363
244.3515,54.0257
244.3060,53.9953
244.2757,53.9499
244.2650,53.8963
244.2650,53.6163
244.2757,53.5627
244.3060,53.5173
244.3515,53.4870
244.4050,53.4763
Z" /> 
<path style="fill:#02FFEE; fill-opacity:0.4000; stroke:none;fill-rule:evenodd;"
d="M 241.5050,52.3463
241.5911,52.3634
241.6641,52.4122
241.7129,52.4852
241.7300,52.5713
241.7300,53.0213
241.7129,53.1074
241.6641,53.1804
241.5911,53.2292
241.5050,53.2463
241.0050,53.2463
240.9189,53.2292
240.8459,53.1804
240.7972,53.1074
240.7800,53.0213
240.7800,52.5713
240.7972,52.4852
240.8459,52.4122
240.9189,52.3634
241.0050,52.3463
Z" /> 
<path style="fill:#02FFEE; fill-opacity:0.4000; stroke:none;fill-rule:evenodd;"
d="M 241.5050,53.8963
241.5911,53.9134
241.6641,53.9622
241.7129,54.0352
241.7300,54.1213
241.7300,54.5713
241.7129,54.6574
241.6641,54.7304
241.5911,54.7792
241.5050,54.7963
241.0050,54.7963
240.9189,54.7792
240.8459,54.7304
240.7972,54.6574
240.7800,54.5713
240.7800,54.1213
240.7972,54.0352
240.8459,53.9622
240.9189,53.9134
241.0050,53.8963
Z" /> 
<path style="fill:#02FFEE; fill-opacity:0.4000; stroke:none;fill-rule:evenodd;"
d="M 226.4200,23.5513
226.3339,23.5342
226.2609,23.4854
226.2122,23.4124
226.1950,23.3263
226.1950,22.8763
226.2122,22.7902
226.2609,22.7172
226.3339,22.6684
226.4200,22.6513
226.9200,22.6513
227.0061,22.6684
227.0791,22.7172
227.1279,22.7902
227.1450,22.8763
227.1450,23.3263
227.1279,23.4124
227.0791,23.4854
227.0061,23.5342
226.9200,23.5513
Z" /> 
<path style="fill:#02FFEE; fill-opacity:0.4000; stroke:none;fill-rule:evenodd;"
d="M 226.4200,22.0013
226.3339,21.9842
226.2609,21.9354
226.2122,21.8624
226.1950,21.7763
226.1950,21.3263
226.2122,21.2402
226.2609,21.1672
226.3339,21.1184
226.4200,21.1013
226.9200,21.1013
227.0061,21.1184
227.0791,21.1672
227.1279,21.2402
227.1450,21.3263
227.1450,21.7763
227.1279,21.8624
227.0791,21.9354
227.0061,21.9842
226.9200,22.0013
Z" /> 
<path style="fill:#02FFEE; fill-opacity:0.4000; stroke:none;fill-rule:evenodd;"
d="M 128.8675,39.9788
128.8866,39.8832
128.9408,39.8020
129.0219,39.7479
129.1175,39.7288
129.6175,39.7288
129.7132,39.7479
129.7943,39.8020
129.8485,39.8832
129.8675,39.9788
129.8675,40.9288
129.8485,41.0245
129.7943,41.1056
129.7132,41.1598
129.6175,41.1788
129.1175,41.1788
129.0219,41.1598
128.9408,41.1056
128.8866,41.0245
128.8675,40.9288
Z" /> 
<path style="fill:#02FFEE; fill-opacity:0.4000; stroke:none;fill-rule:evenodd;"
d="M 130.7675,39.9788
130.7866,39.8832
130.8408,39.8020
130.9219,39.7479
131.0175,39.7288
131.5175,39.7288
131.6132,39.7479
131.6943,39.8020
131.7485,39.8832
131.7675,39.9788
131.7675,40.9288
131.7485,41.0245
131.6943,41.1056
131.6132,41.1598
131.5175,41.1788
131.0175,41.1788
130.9219,41.1598
130.8408,41.1056
130.7866,41.0245
130.7675,40.9288
Z" /> 
<path style="fill:#02FFEE; fill-opacity:0.4000; stroke:none;fill-rule:evenodd;"
d="M 202.2600,20.3563
202.2410,20.4520
202.1868,20.5331
202.1057,20.5873
202.0100,20.6063
201.4850,20.6063
201.3894,20.5873
201.3083,20.5331
201.2541,20.4520
201.2350,20.3563
201.2350,19.4563
201.2541,19.3607
201.3083,19.2795
201.3894,19.2254
201.4850,19.2063
202.0100,19.2063
202.1057,19.2254
202.1868,19.2795
202.2410,19.3607
202.2600,19.4563
Z" /> 
<path style="fill:#02FFEE; fill-opacity:0.4000; stroke:none;fill-rule:evenodd;"
d="M 200.4350,20.3563
200.4160,20.4520
200.3618,20.5331
200.2807,20.5873
200.1850,20.6063
199.6600,20.6063
199.5644,20.5873
199.4833,20.5331
199.4291,20.4520
199.4100,20.3563
199.4100,19.4563
199.4291,19.3607
199.4833,19.2795
199.5644,19.2254
199.6600,19.2063
200.1850,19.2063
200.2807,19.2254
200.3618,19.2795
200.4160,19.3607
200.4350,19.4563
Z" /> 
<path style="fill:#02FFEE; fill-opacity:0.4000; stroke:none;fill-rule:evenodd;"
d="M 241.4500,33.1913
241.3639,33.1742
241.2909,33.1254
241.2422,33.0524
241.2250,32.9663
241.2250,32.5163
241.2422,32.4302
241.2909,32.3572
241.3639,32.3084
241.4500,32.2913
241.9500,32.2913
242.0361,32.3084
242.1091,32.3572
242.1579,32.4302
242.1750,32.5163
242.1750,32.9663
242.1579,33.0524
242.1091,33.1254
242.0361,33.1742
241.9500,33.1913
Z" /> 
<path style="fill:#02FFEE; fill-opacity:0.4000; stroke:none;fill-rule:evenodd;"
d="M 241.4500,31.6413
241.3639,31.6242
241.2909,31.5754
241.2422,31.5024
241.2250,31.4163
241.2250,30.9663
241.2422,30.8802
241.2909,30.8072
241.3639,30.7584
241.4500,30.7413
241.9500,30.7413
242.0361,30.7584
242.1091,30.8072
242.1579,30.8802
242.1750,30.9663
242.1750,31.4163
242.1579,31.5024
242.1091,31.5754
242.0361,31.6242
241.9500,31.6413
Z" /> 
<path style="fill:#02FFEE; fill-opacity:0.4000; stroke:none;fill-rule:evenodd;"
d="M 193.9650,80.4993
193.9115,80.4887
193.8660,80.4583
193.8357,80.4129
193.8250,80.3593
193.8250,80.0793
193.8357,80.0257
193.8660,79.9803
193.9115,79.9500
193.9650,79.9393
194.3050,79.9393
194.3586,79.9500
194.4040,79.9803
194.4344,80.0257
194.4450,80.0793
194.4450,80.3593
194.4344,80.4129
194.4040,80.4583
194.3586,80.4887
194.3050,80.4993
Z" /> 
<path style="fill:#02FFEE; fill-opacity:0.4000; stroke:none;fill-rule:evenodd;"
d="M 193.9650,79.5393
193.9115,79.5287
193.8660,79.4983
193.8357,79.4529
193.8250,79.3993
193.8250,79.1193
193.8357,79.0657
193.8660,79.0203
193.9115,78.9900
193.9650,78.9793
194.3050,78.9793
194.3586,78.9900
194.4040,79.0203
194.4344,79.0657
194.4450,79.1193
194.4450,79.3993
194.4344,79.4529
194.4040,79.4983
194.3586,79.5287
194.3050,79.5393
Z" /> 
<path style="fill:#02FFEE; fill-opacity:0.4000; stroke:none;fill-rule:evenodd;"
d="M 231.9200,24.6363
232.0061,24.6534
232.0791,24.7022
232.1279,24.7752
232.1450,24.8613
232.1450,25.3113
232.1279,25.3974
232.0791,25.4704
232.0061,25.5192
231.9200,25.5363
231.4200,25.5363
231.3339,25.5192
231.2609,25.4704
231.2122,25.3974
231.1950,25.3113
231.1950,24.8613
231.2122,24.7752
231.2609,24.7022
231.3339,24.6534
231.4200,24.6363
Z" /> 
<path style="fill:#02FFEE; fill-opacity:0.4000; stroke:none;fill-rule:evenodd;"
d="M 231.9200,26.1863
232.0061,26.2034
232.0791,26.2522
232.1279,26.3252
232.1450,26.4113
232.1450,26.8613
232.1279,26.9474
232.0791,27.0204
232.0061,27.0692
231.9200,27.0863
231.4200,27.0863
231.3339,27.0692
231.2609,27.0204
231.2122,26.9474
231.1950,26.8613
231.1950,26.4113
231.2122,26.3252
231.2609,26.2522
231.3339,26.2034
231.4200,26.1863
Z" /> 
<path style="fill:#02FFEE; fill-opacity:0.4000; stroke:none;fill-rule:evenodd;"
d="M 236.4400,33.1813
236.3539,33.1642
236.2809,33.1154
236.2322,33.0424
236.2150,32.9563
236.2150,32.5063
236.2322,32.4202
236.2809,32.3472
236.3539,32.2984
236.4400,32.2813
236.9400,32.2813
237.0261,32.2984
237.0991,32.3472
237.1479,32.4202
237.1650,32.5063
237.1650,32.9563
237.1479,33.0424
237.0991,33.1154
237.0261,33.1642
236.9400,33.1813
Z" /> 
<path style="fill:#02FFEE; fill-opacity:0.4000; stroke:none;fill-rule:evenodd;"
d="M 236.4400,31.6313
236.3539,31.6142
236.2809,31.5654
236.2322,31.4924
236.2150,31.4063
236.2150,30.9563
236.2322,30.8702
236.2809,30.7972
236.3539,30.7484
236.4400,30.7313
236.9400,30.7313
237.0261,30.7484
237.0991,30.7972
237.1479,30.8702
237.1650,30.9563
237.1650,31.4063
237.1479,31.4924
237.0991,31.5654
237.0261,31.6142
236.9400,31.6313
Z" /> 
<path style="fill:#02FFEE; fill-opacity:0.4000; stroke:none;fill-rule:evenodd;"
d="M 243.1400,46.1963
243.1294,46.2499
243.0990,46.2953
243.0536,46.3257
243.0000,46.3363
242.7200,46.3363
242.6665,46.3257
242.6210,46.2953
242.5907,46.2499
242.5800,46.1963
242.5800,45.8563
242.5907,45.8027
242.6210,45.7573
242.6665,45.7270
242.7200,45.7163
243.0000,45.7163
243.0536,45.7270
243.0990,45.7573
243.1294,45.8027
243.1400,45.8563
Z" /> 
<path style="fill:#02FFEE; fill-opacity:0.4000; stroke:none;fill-rule:evenodd;"
d="M 242.1800,46.1963
242.1694,46.2499
242.1390,46.2953
242.0936,46.3257
242.0400,46.3363
241.7600,46.3363
241.7065,46.3257
241.6610,46.2953
241.6307,46.2499
241.6200,46.1963
241.6200,45.8563
241.6307,45.8027
241.6610,45.7573
241.7065,45.7270
241.7600,45.7163
242.0400,45.7163
242.0936,45.7270
242.1390,45.7573
242.1694,45.8027
242.1800,45.8563
Z" /> 
<path style="fill:#02FFEE; fill-opacity:0.4000; stroke:none;fill-rule:evenodd;"
d="M 223.7350,34.7188
223.7244,34.7724
223.6940,34.8178
223.6486,34.8482
223.5950,34.8588
223.3150,34.8588
223.2615,34.8482
223.2160,34.8178
223.1857,34.7724
223.1750,34.7188
223.1750,34.3788
223.1857,34.3252
223.2160,34.2798
223.2615,34.2495
223.3150,34.2388
223.5950,34.2388
223.6486,34.2495
223.6940,34.2798
223.7244,34.3252
223.7350,34.3788
Z" /> 
<path style="fill:#02FFEE; fill-opacity:0.4000; stroke:none;fill-rule:evenodd;"
d="M 222.7750,34.7188
222.7644,34.7724
222.7340,34.8178
222.6886,34.8482
222.6350,34.8588
222.3550,34.8588
222.3015,34.8482
222.2560,34.8178
222.2257,34.7724
222.2150,34.7188
222.2150,34.3788
222.2257,34.3252
222.2560,34.2798
222.3015,34.2495
222.3550,34.2388
222.6350,34.2388
222.6886,34.2495
222.7340,34.2798
222.7644,34.3252
222.7750,34.3788
Z" /> 
<path style="fill:#02FFEE; fill-opacity:0.4000; stroke:none;fill-rule:evenodd;"
d="M 252.7100,51.8013
252.6948,51.8779
252.6515,51.9427
252.5866,51.9861
252.5100,52.0013
252.1100,52.0013
252.0335,51.9861
251.9686,51.9427
251.9253,51.8779
251.9100,51.8013
251.9100,51.2513
251.9253,51.1748
251.9686,51.1099
252.0335,51.0665
252.1100,51.0513
252.5100,51.0513
252.5866,51.0665
252.6515,51.1099
252.6948,51.1748
252.7100,51.2513
Z" /> 
<path style="fill:#02FFEE; fill-opacity:0.4000; stroke:none;fill-rule:evenodd;"
d="M 251.0600,51.8013
251.0448,51.8779
251.0015,51.9427
250.9366,51.9861
250.8600,52.0013
250.4600,52.0013
250.3835,51.9861
250.3186,51.9427
250.2753,51.8779
250.2600,51.8013
250.2600,51.2513
250.2753,51.1748
250.3186,51.1099
250.3835,51.0665
250.4600,51.0513
250.8600,51.0513
250.9366,51.0665
251.0015,51.1099
251.0448,51.1748
251.0600,51.2513
Z" /> 
<path style="fill:#02FFEE; fill-opacity:0.4000; stroke:none;fill-rule:evenodd;"
d="M 180.6000,37.0163
180.5810,37.1120
180.5268,37.1931
180.4457,37.2473
180.3500,37.2663
179.8250,37.2663
179.7294,37.2473
179.6483,37.1931
179.5941,37.1120
179.5750,37.0163
179.5750,36.1163
179.5941,36.0207
179.6483,35.9395
179.7294,35.8854
179.8250,35.8663
180.3500,35.8663
180.4457,35.8854
180.5268,35.9395
180.5810,36.0207
180.6000,36.1163
Z" /> 
<path style="fill:#02FFEE; fill-opacity:0.4000; stroke:none;fill-rule:evenodd;"
d="M 178.7750,37.0163
178.7560,37.1120
178.7018,37.1931
178.6207,37.2473
178.5250,37.2663
178.0000,37.2663
177.9044,37.2473
177.8233,37.1931
177.7691,37.1120
177.7500,37.0163
177.7500,36.1163
177.7691,36.0207
177.8233,35.9395
177.9044,35.8854
178.0000,35.8663
178.5250,35.8663
178.6207,35.8854
178.7018,35.9395
178.7560,36.0207
178.7750,36.1163
Z" /> 
<path style="fill:#02FFEE; fill-opacity:0.4000; stroke:none;fill-rule:evenodd;"
d="M 226.9800,34.7213
227.0661,34.7384
227.1391,34.7872
227.1879,34.8602
227.2050,34.9463
227.2050,35.3963
227.1879,35.4824
227.1391,35.5554
227.0661,35.6042
226.9800,35.6213
226.4800,35.6213
226.3939,35.6042
226.3209,35.5554
226.2722,35.4824
226.2550,35.3963
226.2550,34.9463
226.2722,34.8602
226.3209,34.7872
226.3939,34.7384
226.4800,34.7213
Z" /> 
<path style="fill:#02FFEE; fill-opacity:0.4000; stroke:none;fill-rule:evenodd;"
d="M 226.9800,36.2713
227.0661,36.2884
227.1391,36.3372
227.1879,36.4102
227.2050,36.4963
227.2050,36.9463
227.1879,37.0324
227.1391,37.1054
227.0661,37.1542
226.9800,37.1713
226.4800,37.1713
226.3939,37.1542
226.3209,37.1054
226.2722,37.0324
226.2550,36.9463
226.2550,36.4963
226.2722,36.4102
226.3209,36.3372
226.3939,36.2884
226.4800,36.2713
Z" /> 
<path style="fill:#02FFEE; fill-opacity:0.4000; stroke:none;fill-rule:evenodd;"
d="M 241.9600,34.7413
242.0461,34.7584
242.1191,34.8072
242.1679,34.8802
242.1850,34.9663
242.1850,35.4163
242.1679,35.5024
242.1191,35.5754
242.0461,35.6242
241.9600,35.6413
241.4600,35.6413
241.3739,35.6242
241.3009,35.5754
241.2522,35.5024
241.2350,35.4163
241.2350,34.9663
241.2522,34.8802
241.3009,34.8072
241.3739,34.7584
241.4600,34.7413
Z" /> 
<path style="fill:#02FFEE; fill-opacity:0.4000; stroke:none;fill-rule:evenodd;"
d="M 241.9600,36.2913
242.0461,36.3084
242.1191,36.3572
242.1679,36.4302
242.1850,36.5163
242.1850,36.9663
242.1679,37.0524
242.1191,37.1254
242.0461,37.1742
241.9600,37.1913
241.4600,37.1913
241.3739,37.1742
241.3009,37.1254
241.2522,37.0524
241.2350,36.9663
241.2350,36.5163
241.2522,36.4302
241.3009,36.3572
241.3739,36.3084
241.4600,36.2913
Z" /> 
<path style="fill:#02FFEE; fill-opacity:0.4000; stroke:none;fill-rule:evenodd;"
d="M 180.6025,35.0263
180.5854,35.1124
180.5366,35.1854
180.4636,35.2342
180.3775,35.2513
179.9275,35.2513
179.8414,35.2342
179.7684,35.1854
179.7197,35.1124
179.7025,35.0263
179.7025,34.5263
179.7197,34.4402
179.7684,34.3672
179.8414,34.3184
179.9275,34.3013
180.3775,34.3013
180.4636,34.3184
180.5366,34.3672
180.5854,34.4402
180.6025,34.5263
Z" /> 
<path style="fill:#02FFEE; fill-opacity:0.4000; stroke:none;fill-rule:evenodd;"
d="M 179.0525,35.0263
179.0354,35.1124
178.9866,35.1854
178.9136,35.2342
178.8275,35.2513
178.3775,35.2513
178.2914,35.2342
178.2184,35.1854
178.1697,35.1124
178.1525,35.0263
178.1525,34.5263
178.1697,34.4402
178.2184,34.3672
178.2914,34.3184
178.3775,34.3013
178.8275,34.3013
178.9136,34.3184
178.9866,34.3672
179.0354,34.4402
179.0525,34.5263
Z" /> 
<path style="fill:#02FFEE; fill-opacity:0.4000; stroke:none;fill-rule:evenodd;"
d="M 202.8050,19.4613
202.8241,19.3657
202.8783,19.2845
202.9594,19.2304
203.0550,19.2113
203.5800,19.2113
203.6757,19.2304
203.7568,19.2845
203.8110,19.3657
203.8300,19.4613
203.8300,20.3613
203.8110,20.4570
203.7568,20.5381
203.6757,20.5923
203.5800,20.6113
203.0550,20.6113
202.9594,20.5923
202.8783,20.5381
202.8241,20.4570
202.8050,20.3613
Z" /> 
<path style="fill:#02FFEE; fill-opacity:0.4000; stroke:none;fill-rule:evenodd;"
d="M 204.6300,19.4613
204.6491,19.3657
204.7033,19.2845
204.7844,19.2304
204.8800,19.2113
205.4050,19.2113
205.5007,19.2304
205.5818,19.2845
205.6360,19.3657
205.6550,19.4613
205.6550,20.3613
205.6360,20.4570
205.5818,20.5381
205.5007,20.5923
205.4050,20.6113
204.8800,20.6113
204.7844,20.5923
204.7033,20.5381
204.6491,20.4570
204.6300,20.3613
Z" /> 
<path style="fill:#02FFEE; fill-opacity:0.4000; stroke:none;fill-rule:evenodd;"
d="M 200.4250,37.3363
200.4060,37.4320
200.3518,37.5131
200.2707,37.5673
200.1750,37.5863
199.6500,37.5863
199.5544,37.5673
199.4733,37.5131
199.4191,37.4320
199.4000,37.3363
199.4000,36.4363
199.4191,36.3407
199.4733,36.2595
199.5544,36.2054
199.6500,36.1863
200.1750,36.1863
200.2707,36.2054
200.3518,36.2595
200.4060,36.3407
200.4250,36.4363
Z" /> 
<path style="fill:#02FFEE; fill-opacity:0.4000; stroke:none;fill-rule:evenodd;"
d="M 198.6000,37.3363
198.5810,37.4320
198.5268,37.5131
198.4457,37.5673
198.3500,37.5863
197.8250,37.5863
197.7294,37.5673
197.6483,37.5131
197.5941,37.4320
197.5750,37.3363
197.5750,36.4363
197.5941,36.3407
197.6483,36.2595
197.7294,36.2054
197.8250,36.1863
198.3500,36.1863
198.4457,36.2054
198.5268,36.2595
198.5810,36.3407
198.6000,36.4363
Z" /> 
<path style="fill:#02FFEE; fill-opacity:0.4000; stroke:none;fill-rule:evenodd;"
d="M 241.1600,39.5963
241.2117,39.6066
241.2555,39.6359
241.2848,39.6797
241.2950,39.7313
241.2950,40.0013
241.2848,40.0530
241.2555,40.0968
241.2117,40.1260
241.1600,40.1363
240.7900,40.1363
240.7384,40.1260
240.6946,40.0968
240.6653,40.0530
240.6550,40.0013
240.6550,39.7313
240.6653,39.6797
240.6946,39.6359
240.7384,39.6066
240.7900,39.5963
Z" /> 
<path style="fill:#02FFEE; fill-opacity:0.4000; stroke:none;fill-rule:evenodd;"
d="M 241.1600,40.6163
241.2117,40.6266
241.2555,40.6559
241.2848,40.6997
241.2950,40.7513
241.2950,41.0213
241.2848,41.0730
241.2555,41.1168
241.2117,41.1460
241.1600,41.1563
240.7900,41.1563
240.7384,41.1460
240.6946,41.1168
240.6653,41.0730
240.6550,41.0213
240.6550,40.7513
240.6653,40.6997
240.6946,40.6559
240.7384,40.6266
240.7900,40.6163
Z" /> 
<path style="fill:#02FFEE; fill-opacity:0.4000; stroke:none;fill-rule:evenodd;"
d="M 216.0375,68.5713
216.0892,68.5816
216.1330,68.6109
216.1623,68.6547
216.1725,68.7063
216.1725,68.9763
216.1623,69.0280
216.1330,69.0718
216.0892,69.1010
216.0375,69.1113
215.6675,69.1113
215.6159,69.1010
215.5721,69.0718
215.5428,69.0280
215.5325,68.9763
215.5325,68.7063
215.5428,68.6547
215.5721,68.6109
215.6159,68.5816
215.6675,68.5713
Z" /> 
<path style="fill:#02FFEE; fill-opacity:0.4000; stroke:none;fill-rule:evenodd;"
d="M 216.0375,69.5913
216.0892,69.6016
216.1330,69.6309
216.1623,69.6747
216.1725,69.7263
216.1725,69.9963
216.1623,70.0480
216.1330,70.0918
216.0892,70.1210
216.0375,70.1313
215.6675,70.1313
215.6159,70.1210
215.5721,70.0918
215.5428,70.0480
215.5325,69.9963
215.5325,69.7263
215.5428,69.6747
215.5721,69.6309
215.6159,69.6016
215.6675,69.5913
Z" /> 
<path style="fill:#02FFEE; fill-opacity:0.4000; stroke:none;fill-rule:evenodd;"
d="M 124.5025,35.7888
124.5216,35.6932
124.5758,35.6120
124.6569,35.5579
124.7525,35.5388
125.2525,35.5388
125.3482,35.5579
125.4293,35.6120
125.4835,35.6932
125.5025,35.7888
125.5025,36.7388
125.4835,36.8345
125.4293,36.9156
125.3482,36.9698
125.2525,36.9888
124.7525,36.9888
124.6569,36.9698
124.5758,36.9156
124.5216,36.8345
124.5025,36.7388
Z" /> 
<path style="fill:#02FFEE; fill-opacity:0.4000; stroke:none;fill-rule:evenodd;"
d="M 126.4025,35.7888
126.4216,35.6932
126.4758,35.6120
126.5569,35.5579
126.6525,35.5388
127.1525,35.5388
127.2482,35.5579
127.3293,35.6120
127.3835,35.6932
127.4025,35.7888
127.4025,36.7388
127.3835,36.8345
127.3293,36.9156
127.2482,36.9698
127.1525,36.9888
126.6525,36.9888
126.5569,36.9698
126.4758,36.9156
126.4216,36.8345
126.4025,36.7388
Z" /> 
<path style="fill:#02FFEE; fill-opacity:0.4000; stroke:none;fill-rule:evenodd;"
d="M 171.0800,83.9613
171.1336,83.9720
171.1790,84.0023
171.2094,84.0477
171.2200,84.1013
171.2200,84.3813
171.2094,84.4349
171.1790,84.4803
171.1336,84.5107
171.0800,84.5213
170.7400,84.5213
170.6865,84.5107
170.6410,84.4803
170.6107,84.4349
170.6000,84.3813
170.6000,84.1013
170.6107,84.0477
170.6410,84.0023
170.6865,83.9720
170.7400,83.9613
Z" /> 
<path style="fill:#02FFEE; fill-opacity:0.4000; stroke:none;fill-rule:evenodd;"
d="M 171.0800,84.9213
171.1336,84.9320
171.1790,84.9623
171.2094,85.0077
171.2200,85.0613
171.2200,85.3413
171.2094,85.3949
171.1790,85.4403
171.1336,85.4707
171.0800,85.4813
170.7400,85.4813
170.6865,85.4707
170.6410,85.4403
170.6107,85.3949
170.6000,85.3413
170.6000,85.0613
170.6107,85.0077
170.6410,84.9623
170.6865,84.9320
170.7400,84.9213
Z" /> 
<path style="fill:#02FFEE; fill-opacity:0.4000; stroke:none;fill-rule:evenodd;"
d="M 169.7050,62.2863
169.7157,62.2327
169.7460,62.1873
169.7915,62.1570
169.8450,62.1463
170.1250,62.1463
170.1786,62.1570
170.2240,62.1873
170.2544,62.2327
170.2650,62.2863
170.2650,62.6263
170.2544,62.6799
170.2240,62.7253
170.1786,62.7557
170.1250,62.7663
169.8450,62.7663
169.7915,62.7557
169.7460,62.7253
169.7157,62.6799
169.7050,62.6263
Z" /> 
<path style="fill:#02FFEE; fill-opacity:0.4000; stroke:none;fill-rule:evenodd;"
d="M 170.6650,62.2863
170.6757,62.2327
170.7060,62.1873
170.7515,62.1570
170.8050,62.1463
171.0850,62.1463
171.1386,62.1570
171.1840,62.1873
171.2144,62.2327
171.2250,62.2863
171.2250,62.6263
171.2144,62.6799
171.1840,62.7253
171.1386,62.7557
171.0850,62.7663
170.8050,62.7663
170.7515,62.7557
170.7060,62.7253
170.6757,62.6799
170.6650,62.6263
Z" /> 
<path style="fill:#02FFEE; fill-opacity:0.4000; stroke:none;fill-rule:evenodd;"
d="M 231.4450,23.5113
231.3589,23.4942
231.2859,23.4454
231.2372,23.3724
231.2200,23.2863
231.2200,22.8363
231.2372,22.7502
231.2859,22.6772
231.3589,22.6284
231.4450,22.6113
231.9450,22.6113
232.0311,22.6284
232.1041,22.6772
232.1529,22.7502
232.1700,22.8363
232.1700,23.2863
232.1529,23.3724
232.1041,23.4454
232.0311,23.4942
231.9450,23.5113
Z" /> 
<path style="fill:#02FFEE; fill-opacity:0.4000; stroke:none;fill-rule:evenodd;"
d="M 231.4450,21.9613
231.3589,21.9442
231.2859,21.8954
231.2372,21.8224
231.2200,21.7363
231.2200,21.2863
231.2372,21.2002
231.2859,21.1272
231.3589,21.0784
231.4450,21.0613
231.9450,21.0613
232.0311,21.0784
232.1041,21.1272
232.1529,21.2002
232.1700,21.2863
232.1700,21.7363
232.1529,21.8224
232.1041,21.8954
232.0311,21.9442
231.9450,21.9613
Z" /> 
<path style="fill:#02FFEE; fill-opacity:0.4000; stroke:none;fill-rule:evenodd;"
d="M 169.7050,59.2863
169.7157,59.2327
169.7460,59.1873
169.7915,59.1570
169.8450,59.1463
170.1250,59.1463
170.1786,59.1570
170.2240,59.1873
170.2544,59.2327
170.2650,59.2863
170.2650,59.6263
170.2544,59.6799
170.2240,59.7253
170.1786,59.7557
170.1250,59.7663
169.8450,59.7663
169.7915,59.7557
169.7460,59.7253
169.7157,59.6799
169.7050,59.6263
Z" /> 
<path style="fill:#02FFEE; fill-opacity:0.4000; stroke:none;fill-rule:evenodd;"
d="M 170.6650,59.2863
170.6757,59.2327
170.7060,59.1873
170.7515,59.1570
170.8050,59.1463
171.0850,59.1463
171.1386,59.1570
171.1840,59.1873
171.2144,59.2327
171.2250,59.2863
171.2250,59.6263
171.2144,59.6799
171.1840,59.7253
171.1386,59.7557
171.0850,59.7663
170.8050,59.7663
170.7515,59.7557
170.7060,59.7253
170.6757,59.6799
170.6650,59.6263
Z" /> 
<path style="fill:#02FFEE; fill-opacity:0.4000; stroke:none;fill-rule:evenodd;"
d="M 169.7800,84.0413
169.8661,84.0584
169.9391,84.1072
169.9879,84.1802
170.0050,84.2663
170.0050,84.7163
169.9879,84.8024
169.9391,84.8754
169.8661,84.9242
169.7800,84.9413
169.2800,84.9413
169.1939,84.9242
169.1209,84.8754
169.0722,84.8024
169.0550,84.7163
169.0550,84.2663
169.0722,84.1802
169.1209,84.1072
169.1939,84.0584
169.2800,84.0413
Z" /> 
<path style="fill:#02FFEE; fill-opacity:0.4000; stroke:none;fill-rule:evenodd;"
d="M 169.7800,85.5913
169.8661,85.6084
169.9391,85.6572
169.9879,85.7302
170.0050,85.8163
170.0050,86.2663
169.9879,86.3524
169.9391,86.4254
169.8661,86.4742
169.7800,86.4913
169.2800,86.4913
169.1939,86.4742
169.1209,86.4254
169.0722,86.3524
169.0550,86.2663
169.0550,85.8163
169.0722,85.7302
169.1209,85.6572
169.1939,85.6084
169.2800,85.5913
Z" /> 
<path style="fill:#02FFEE; fill-opacity:0.4000; stroke:none;fill-rule:evenodd;"
d="M 169.7350,68.4563
169.7522,68.3702
169.8009,68.2972
169.8739,68.2484
169.9600,68.2313
170.4100,68.2313
170.4961,68.2484
170.5691,68.2972
170.6179,68.3702
170.6350,68.4563
170.6350,68.9563
170.6179,69.0424
170.5691,69.1154
170.4961,69.1642
170.4100,69.1813
169.9600,69.1813
169.8739,69.1642
169.8009,69.1154
169.7522,69.0424
169.7350,68.9563
Z" /> 
<path style="fill:#02FFEE; fill-opacity:0.4000; stroke:none;fill-rule:evenodd;"
d="M 171.2850,68.4563
171.3022,68.3702
171.3509,68.2972
171.4239,68.2484
171.5100,68.2313
171.9600,68.2313
172.0461,68.2484
172.1191,68.2972
172.1679,68.3702
172.1850,68.4563
172.1850,68.9563
172.1679,69.0424
172.1191,69.1154
172.0461,69.1642
171.9600,69.1813
171.5100,69.1813
171.4239,69.1642
171.3509,69.1154
171.3022,69.0424
171.2850,68.9563
Z" /> 
<path style="fill:#02FFEE; fill-opacity:0.4000; stroke:none;fill-rule:evenodd;"
d="M 242.7250,45.2138
242.6676,45.2024
242.6190,45.1699
242.5865,45.1212
242.5750,45.0638
242.5750,44.0388
242.5865,43.9814
242.6190,43.9328
242.6676,43.9002
242.7250,43.8888
243.0250,43.8888
243.0824,43.9002
243.1311,43.9328
243.1636,43.9814
243.1750,44.0388
243.1750,45.0638
243.1636,45.1212
243.1311,45.1699
243.0824,45.2024
243.0250,45.2138
Z" /> 
<path style="fill:#02FFEE; fill-opacity:0.4000; stroke:none;fill-rule:evenodd;"
d="M 241.7750,45.2138
241.7176,45.2024
241.6690,45.1699
241.6365,45.1212
241.6250,45.0638
241.6250,44.0388
241.6365,43.9814
241.6690,43.9328
241.7176,43.9002
241.7750,43.8888
242.0750,43.8888
242.1324,43.9002
242.1811,43.9328
242.2136,43.9814
242.2250,44.0388
242.2250,45.0638
242.2136,45.1212
242.1811,45.1699
242.1324,45.2024
242.0750,45.2138
Z" /> 
<path style="fill:#02FFEE; fill-opacity:0.4000; stroke:none;fill-rule:evenodd;"
d="M 240.8250,45.2138
240.7676,45.2024
240.7190,45.1699
240.6865,45.1212
240.6750,45.0638
240.6750,44.0388
240.6865,43.9814
240.7190,43.9328
240.7676,43.9002
240.8250,43.8888
241.1250,43.8888
241.1824,43.9002
241.2311,43.9328
241.2636,43.9814
241.2750,44.0388
241.2750,45.0638
241.2636,45.1212
241.2311,45.1699
241.1824,45.2024
241.1250,45.2138
Z" /> 
<path style="fill:#02FFEE; fill-opacity:0.4000; stroke:none;fill-rule:evenodd;"
d="M 240.8250,42.9388
240.7676,42.9274
240.7190,42.8949
240.6865,42.8462
240.6750,42.7888
240.6750,41.7638
240.6865,41.7064
240.7190,41.6578
240.7676,41.6252
240.8250,41.6138
241.1250,41.6138
241.1824,41.6252
241.2311,41.6578
241.2636,41.7064
241.2750,41.7638
241.2750,42.7888
241.2636,42.8462
241.2311,42.8949
241.1824,42.9274
241.1250,42.9388
Z" /> 
<path style="fill:#02FFEE; fill-opacity:0.4000; stroke:none;fill-rule:evenodd;"
d="M 241.7750,42.9388
241.7176,42.9274
241.6690,42.8949
241.6365,42.8462
241.6250,42.7888
241.6250,41.7638
241.6365,41.7064
241.6690,41.6578
241.7176,41.6252
241.7750,41.6138
242.0750,41.6138
242.1324,41.6252
242.1811,41.6578
242.2136,41.7064
242.2250,41.7638
242.2250,42.7888
242.2136,42.8462
242.1811,42.8949
242.1324,42.9274
242.0750,42.9388
Z" /> 
<path style="fill:#02FFEE; fill-opacity:0.4000; stroke:none;fill-rule:evenodd;"
d="M 242.7250,42.9388
242.6676,42.9274
242.6190,42.8949
242.5865,42.8462
242.5750,42.7888
242.5750,41.7638
242.5865,41.7064
242.6190,41.6578
242.6676,41.6252
242.7250,41.6138
243.0250,41.6138
243.0824,41.6252
243.1311,41.6578
243.1636,41.7064
243.1750,41.7638
243.1750,42.7888
243.1636,42.8462
243.1311,42.8949
243.0824,42.9274
243.0250,42.9388
Z" /> 
<path style="fill:#02FFEE; fill-opacity:0.4000; stroke:none;fill-rule:evenodd;"
d="M 192.5350,80.3993
192.4489,80.3822
192.3759,80.3334
192.3272,80.2604
192.3100,80.1743
192.3100,79.7243
192.3272,79.6382
192.3759,79.5652
192.4489,79.5164
192.5350,79.4993
193.0350,79.4993
193.1211,79.5164
193.1941,79.5652
193.2429,79.6382
193.2600,79.7243
193.2600,80.1743
193.2429,80.2604
193.1941,80.3334
193.1211,80.3822
193.0350,80.3993
Z" /> 
<path style="fill:#02FFEE; fill-opacity:0.4000; stroke:none;fill-rule:evenodd;"
d="M 192.5350,78.8493
192.4489,78.8322
192.3759,78.7834
192.3272,78.7104
192.3100,78.6243
192.3100,78.1743
192.3272,78.0882
192.3759,78.0152
192.4489,77.9664
192.5350,77.9493
193.0350,77.9493
193.1211,77.9664
193.1941,78.0152
193.2429,78.0882
193.2600,78.1743
193.2600,78.6243
193.2429,78.7104
193.1941,78.7834
193.1211,78.8322
193.0350,78.8493
Z" /> 
<path style="fill:#02FFEE; fill-opacity:0.4000; stroke:none;fill-rule:evenodd;"
d="M 215.3450,19.4363
215.3641,19.3407
215.4183,19.2595
215.4994,19.2054
215.5950,19.1863
216.1200,19.1863
216.2157,19.2054
216.2968,19.2595
216.3510,19.3407
216.3700,19.4363
216.3700,20.3363
216.3510,20.4320
216.2968,20.5131
216.2157,20.5673
216.1200,20.5863
215.5950,20.5863
215.4994,20.5673
215.4183,20.5131
215.3641,20.4320
215.3450,20.3363
Z" /> 
<path style="fill:#02FFEE; fill-opacity:0.4000; stroke:none;fill-rule:evenodd;"
d="M 217.1700,19.4363
217.1891,19.3407
217.2433,19.2595
217.3244,19.2054
217.4200,19.1863
217.9450,19.1863
218.0407,19.2054
218.1218,19.2595
218.1760,19.3407
218.1950,19.4363
218.1950,20.3363
218.1760,20.4320
218.1218,20.5131
218.0407,20.5673
217.9450,20.5863
217.4200,20.5863
217.3244,20.5673
217.2433,20.5131
217.1891,20.4320
217.1700,20.3363
Z" /> 
<path style="fill:#02FFEE; fill-opacity:0.4000; stroke:none;fill-rule:evenodd;"
d="M 249.8250,52.5263
249.8786,52.5370
249.9240,52.5673
249.9544,52.6127
249.9650,52.6663
249.9650,52.9463
249.9544,52.9999
249.9240,53.0453
249.8786,53.0757
249.8250,53.0863
249.4850,53.0863
249.4315,53.0757
249.3860,53.0453
249.3557,52.9999
249.3450,52.9463
249.3450,52.6663
249.3557,52.6127
249.3860,52.5673
249.4315,52.5370
249.4850,52.5263
Z" /> 
<path style="fill:#02FFEE; fill-opacity:0.4000; stroke:none;fill-rule:evenodd;"
d="M 249.8250,53.4863
249.8786,53.4970
249.9240,53.5273
249.9544,53.5727
249.9650,53.6263
249.9650,53.9063
249.9544,53.9599
249.9240,54.0053
249.8786,54.0357
249.8250,54.0463
249.4850,54.0463
249.4315,54.0357
249.3860,54.0053
249.3557,53.9599
249.3450,53.9063
249.3450,53.6263
249.3557,53.5727
249.3860,53.5273
249.4315,53.4970
249.4850,53.4863
Z" /> 
<path style="fill:#02FFEE; fill-opacity:0.4000; stroke:none;fill-rule:evenodd;"
d="M 128.8925,35.6288
128.9116,35.5332
128.9658,35.4520
129.0469,35.3979
129.1425,35.3788
129.6675,35.3788
129.7632,35.3979
129.8443,35.4520
129.8985,35.5332
129.9175,35.6288
129.9175,36.5288
129.8985,36.6245
129.8443,36.7056
129.7632,36.7598
129.6675,36.7788
129.1425,36.7788
129.0469,36.7598
128.9658,36.7056
128.9116,36.6245
128.8925,36.5288
Z" /> 
<path style="fill:#02FFEE; fill-opacity:0.4000; stroke:none;fill-rule:evenodd;"
d="M 130.7175,35.6288
130.7366,35.5332
130.7908,35.4520
130.8719,35.3979
130.9675,35.3788
131.4925,35.3788
131.5882,35.3979
131.6693,35.4520
131.7235,35.5332
131.7425,35.6288
131.7425,36.5288
131.7235,36.6245
131.6693,36.7056
131.5882,36.7598
131.4925,36.7788
130.9675,36.7788
130.8719,36.7598
130.7908,36.7056
130.7366,36.6245
130.7175,36.5288
Z" /> 
<path style="fill:#02FFEE; fill-opacity:0.4000; stroke:none;fill-rule:evenodd;"
d="M 236.9450,24.6563
237.0311,24.6734
237.1041,24.7222
237.1529,24.7952
237.1700,24.8813
237.1700,25.3313
237.1529,25.4174
237.1041,25.4904
237.0311,25.5392
236.9450,25.5563
236.4450,25.5563
236.3589,25.5392
236.2859,25.4904
236.2372,25.4174
236.2200,25.3313
236.2200,24.8813
236.2372,24.7952
236.2859,24.7222
236.3589,24.6734
236.4450,24.6563
Z" /> 
<path style="fill:#02FFEE; fill-opacity:0.4000; stroke:none;fill-rule:evenodd;"
d="M 236.9450,26.2063
237.0311,26.2234
237.1041,26.2722
237.1529,26.3452
237.1700,26.4313
237.1700,26.8813
237.1529,26.9674
237.1041,27.0404
237.0311,27.0892
236.9450,27.1063
236.4450,27.1063
236.3589,27.0892
236.2859,27.0404
236.2372,26.9674
236.2200,26.8813
236.2200,26.4313
236.2372,26.3452
236.2859,26.2722
236.3589,26.2234
236.4450,26.2063
Z" /> 
<path style="fill:#02FFEE; fill-opacity:0.4000; stroke:none;fill-rule:evenodd;"
d="M 169.7050,66.2863
169.7157,66.2327
169.7460,66.1873
169.7915,66.1570
169.8450,66.1463
170.1250,66.1463
170.1786,66.1570
170.2240,66.1873
170.2544,66.2327
170.2650,66.2863
170.2650,66.6263
170.2544,66.6799
170.2240,66.7253
170.1786,66.7557
170.1250,66.7663
169.8450,66.7663
169.7915,66.7557
169.7460,66.7253
169.7157,66.6799
169.7050,66.6263
Z" /> 
<path style="fill:#02FFEE; fill-opacity:0.4000; stroke:none;fill-rule:evenodd;"
d="M 170.6650,66.2863
170.6757,66.2327
170.7060,66.1873
170.7515,66.1570
170.8050,66.1463
171.0850,66.1463
171.1386,66.1570
171.1840,66.1873
171.2144,66.2327
171.2250,66.2863
171.2250,66.6263
171.2144,66.6799
171.1840,66.7253
171.1386,66.7557
171.0850,66.7663
170.8050,66.7663
170.7515,66.7557
170.7060,66.7253
170.6757,66.6799
170.6650,66.6263
Z" /> 
<path style="fill:#02FFEE; fill-opacity:0.4000; stroke:none;fill-rule:evenodd;"
d="M 169.6850,60.2863
169.6957,60.2327
169.7260,60.1873
169.7715,60.1570
169.8250,60.1463
170.1050,60.1463
170.1586,60.1570
170.2040,60.1873
170.2344,60.2327
170.2450,60.2863
170.2450,60.6263
170.2344,60.6799
170.2040,60.7253
170.1586,60.7557
170.1050,60.7663
169.8250,60.7663
169.7715,60.7557
169.7260,60.7253
169.6957,60.6799
169.6850,60.6263
Z" /> 
<path style="fill:#02FFEE; fill-opacity:0.4000; stroke:none;fill-rule:evenodd;"
d="M 170.6450,60.2863
170.6557,60.2327
170.6860,60.1873
170.7315,60.1570
170.7850,60.1463
171.0650,60.1463
171.1186,60.1570
171.1640,60.1873
171.1944,60.2327
171.2050,60.2863
171.2050,60.6263
171.1944,60.6799
171.1640,60.7253
171.1186,60.7557
171.0650,60.7663
170.7850,60.7663
170.7315,60.7557
170.6860,60.7253
170.6557,60.6799
170.6450,60.6263
Z" /> 
<path style="fill:#02FFEE; fill-opacity:0.4000; stroke:none;fill-rule:evenodd;"
d="M 189.6450,20.2538
189.6260,20.3495
189.5718,20.4306
189.4907,20.4848
189.3950,20.5038
188.8700,20.5038
188.7744,20.4848
188.6933,20.4306
188.6391,20.3495
188.6200,20.2538
188.6200,19.3538
188.6391,19.2582
188.6933,19.1770
188.7744,19.1229
188.8700,19.1038
189.3950,19.1038
189.4907,19.1229
189.5718,19.1770
189.6260,19.2582
189.6450,19.3538
Z" /> 
<path style="fill:#02FFEE; fill-opacity:0.4000; stroke:none;fill-rule:evenodd;"
d="M 187.8200,20.2538
187.8010,20.3495
187.7468,20.4306
187.6657,20.4848
187.5700,20.5038
187.0450,20.5038
186.9494,20.4848
186.8683,20.4306
186.8141,20.3495
186.7950,20.2538
186.7950,19.3538
186.8141,19.2582
186.8683,19.1770
186.9494,19.1229
187.0450,19.1038
187.5700,19.1038
187.6657,19.1229
187.7468,19.1770
187.8010,19.2582
187.8200,19.3538
Z" /> 
<path style="fill:#02FFEE; fill-opacity:0.4000; stroke:none;fill-rule:evenodd;"
d="M 128.5400,33.4763
128.5591,33.3807
128.6133,33.2995
128.6944,33.2454
128.7900,33.2263
129.3150,33.2263
129.4107,33.2454
129.4918,33.2995
129.5460,33.3807
129.5650,33.4763
129.5650,34.3763
129.5460,34.4720
129.4918,34.5531
129.4107,34.6073
129.3150,34.6263
128.7900,34.6263
128.6944,34.6073
128.6133,34.5531
128.5591,34.4720
128.5400,34.3763
Z" /> 
<path style="fill:#02FFEE; fill-opacity:0.4000; stroke:none;fill-rule:evenodd;"
d="M 130.3650,33.4763
130.3841,33.3807
130.4383,33.2995
130.5194,33.2454
130.6150,33.2263
131.1400,33.2263
131.2357,33.2454
131.3168,33.2995
131.3710,33.3807
131.3900,33.4763
131.3900,34.3763
131.3710,34.4720
131.3168,34.5531
131.2357,34.6073
131.1400,34.6263
130.6150,34.6263
130.5194,34.6073
130.4383,34.5531
130.3841,34.4720
130.3650,34.3763
Z" /> 
<path style="fill:#02FFEE; fill-opacity:0.4000; stroke:none;fill-rule:evenodd;"
d="M 241.4350,23.5213
241.3489,23.5042
241.2759,23.4554
241.2272,23.3824
241.2100,23.2963
241.2100,22.8463
241.2272,22.7602
241.2759,22.6872
241.3489,22.6384
241.4350,22.6213
241.9350,22.6213
242.0211,22.6384
242.0941,22.6872
242.1429,22.7602
242.1600,22.8463
242.1600,23.2963
242.1429,23.3824
242.0941,23.4554
242.0211,23.5042
241.9350,23.5213
Z" /> 
<path style="fill:#02FFEE; fill-opacity:0.4000; stroke:none;fill-rule:evenodd;"
d="M 241.4350,21.9713
241.3489,21.9542
241.2759,21.9054
241.2272,21.8324
241.2100,21.7463
241.2100,21.2963
241.2272,21.2102
241.2759,21.1372
241.3489,21.0884
241.4350,21.0713
241.9350,21.0713
242.0211,21.0884
242.0941,21.1372
242.1429,21.2102
242.1600,21.2963
242.1600,21.7463
242.1429,21.8324
242.0941,21.9054
242.0211,21.9542
241.9350,21.9713
Z" /> 
<path style="fill:#02FFEE; fill-opacity:0.4000; stroke:none;fill-rule:evenodd;"
d="M 190.2100,19.3538
190.2291,19.2582
190.2833,19.1770
190.3644,19.1229
190.4600,19.1038
190.9850,19.1038
191.0807,19.1229
191.1618,19.1770
191.2160,19.2582
191.2350,19.3538
191.2350,20.2538
191.2160,20.3495
191.1618,20.4306
191.0807,20.4848
190.9850,20.5038
190.4600,20.5038
190.3644,20.4848
190.2833,20.4306
190.2291,20.3495
190.2100,20.2538
Z" /> 
<path style="fill:#02FFEE; fill-opacity:0.4000; stroke:none;fill-rule:evenodd;"
d="M 192.0350,19.3538
192.0541,19.2582
192.1083,19.1770
192.1894,19.1229
192.2850,19.1038
192.8100,19.1038
192.9057,19.1229
192.9868,19.1770
193.0410,19.2582
193.0600,19.3538
193.0600,20.2538
193.0410,20.3495
192.9868,20.4306
192.9057,20.4848
192.8100,20.5038
192.2850,20.5038
192.1894,20.4848
192.1083,20.4306
192.0541,20.3495
192.0350,20.2538
Z" /> 
<path style="fill:#02FFEE; fill-opacity:0.4000; stroke:none;fill-rule:evenodd;"
d="M 223.7375,29.4688
223.7269,29.5224
223.6965,29.5678
223.6511,29.5982
223.5975,29.6088
223.3175,29.6088
223.2640,29.5982
223.2185,29.5678
223.1882,29.5224
223.1775,29.4688
223.1775,29.1288
223.1882,29.0752
223.2185,29.0298
223.2640,28.9995
223.3175,28.9888
223.5975,28.9888
223.6511,28.9995
223.6965,29.0298
223.7269,29.0752
223.7375,29.1288
Z" /> 
<path style="fill:#02FFEE; fill-opacity:0.4000; stroke:none;fill-rule:evenodd;"
d="M 222.7775,29.4688
222.7669,29.5224
222.7365,29.5678
222.6911,29.5982
222.6375,29.6088
222.3575,29.6088
222.3040,29.5982
222.2585,29.5678
222.2282,29.5224
222.2175,29.4688
222.2175,29.1288
222.2282,29.0752
222.2585,29.0298
222.3040,28.9995
222.3575,28.9888
222.6375,28.9888
222.6911,28.9995
222.7365,29.0298
222.7669,29.0752
222.7775,29.1288
Z" /> 
<path style="fill:#02FFEE; fill-opacity:0.4000; stroke:none;fill-rule:evenodd;"
d="M 177.6175,19.3838
177.6366,19.2882
177.6908,19.2070
177.7719,19.1529
177.8675,19.1338
178.3925,19.1338
178.4882,19.1529
178.5693,19.2070
178.6235,19.2882
178.6425,19.3838
178.6425,20.2838
178.6235,20.3795
178.5693,20.4606
178.4882,20.5148
178.3925,20.5338
177.8675,20.5338
177.7719,20.5148
177.6908,20.4606
177.6366,20.3795
177.6175,20.2838
Z" /> 
<path style="fill:#02FFEE; fill-opacity:0.4000; stroke:none;fill-rule:evenodd;"
d="M 179.4425,19.3838
179.4616,19.2882
179.5158,19.2070
179.5969,19.1529
179.6925,19.1338
180.2175,19.1338
180.3132,19.1529
180.3943,19.2070
180.4485,19.2882
180.4675,19.3838
180.4675,20.2838
180.4485,20.3795
180.3943,20.4606
180.3132,20.5148
180.2175,20.5338
179.6925,20.5338
179.5969,20.5148
179.5158,20.4606
179.4616,20.3795
179.4425,20.2838
Z" /> 
<path style="fill:#02FFEE; fill-opacity:0.4000; stroke:none;fill-rule:evenodd;"
d="M 236.9500,34.7013
237.0361,34.7184
237.1091,34.7672
237.1579,34.8402
237.1750,34.9263
237.1750,35.3763
237.1579,35.4624
237.1091,35.5354
237.0361,35.5842
236.9500,35.6013
236.4500,35.6013
236.3639,35.5842
236.2909,35.5354
236.2422,35.4624
236.2250,35.3763
236.2250,34.9263
236.2422,34.8402
236.2909,34.7672
236.3639,34.7184
236.4500,34.7013
Z" /> 
<path style="fill:#02FFEE; fill-opacity:0.4000; stroke:none;fill-rule:evenodd;"
d="M 236.9500,36.2513
237.0361,36.2684
237.1091,36.3172
237.1579,36.3902
237.1750,36.4763
237.1750,36.9263
237.1579,37.0124
237.1091,37.0854
237.0361,37.1342
236.9500,37.1513
236.4500,37.1513
236.3639,37.1342
236.2909,37.0854
236.2422,37.0124
236.2250,36.9263
236.2250,36.4763
236.2422,36.3902
236.2909,36.3172
236.3639,36.2684
236.4500,36.2513
Z" /> 
<path style="fill:#02FFEE; fill-opacity:0.4000; stroke:none;fill-rule:evenodd;"
d="M 200.1650,31.2413
200.2607,31.2604
200.3418,31.3145
200.3960,31.3957
200.4150,31.4913
200.4150,32.0163
200.3960,32.1120
200.3418,32.1931
200.2607,32.2473
200.1650,32.2663
199.2650,32.2663
199.1694,32.2473
199.0883,32.1931
199.0341,32.1120
199.0150,32.0163
199.0150,31.4913
199.0341,31.3957
199.0883,31.3145
199.1694,31.2604
199.2650,31.2413
Z" /> 
<path style="fill:#02FFEE; fill-opacity:0.4000; stroke:none;fill-rule:evenodd;"
d="M 200.1650,33.0663
200.2607,33.0854
200.3418,33.1395
200.3960,33.2207
200.4150,33.3163
200.4150,33.8413
200.3960,33.9370
200.3418,34.0181
200.2607,34.0723
200.1650,34.0913
199.2650,34.0913
199.1694,34.0723
199.0883,34.0181
199.0341,33.9370
199.0150,33.8413
199.0150,33.3163
199.0341,33.2207
199.0883,33.1395
199.1694,33.0854
199.2650,33.0663
Z" /> 
<path style="fill:#02FFEE; fill-opacity:0.4000; stroke:none;fill-rule:evenodd;"
d="M 250.8250,52.5263
250.8786,52.5370
250.9240,52.5673
250.9544,52.6127
250.9650,52.6663
250.9650,52.9463
250.9544,52.9999
250.9240,53.0453
250.8786,53.0757
250.8250,53.0863
250.4850,53.0863
250.4315,53.0757
250.3860,53.0453
250.3557,52.9999
250.3450,52.9463
250.3450,52.6663
250.3557,52.6127
250.3860,52.5673
250.4315,52.5370
250.4850,52.5263
Z" /> 
<path style="fill:#02FFEE; fill-opacity:0.4000; stroke:none;fill-rule:evenodd;"
d="M 250.8250,53.4863
250.8786,53.4970
250.9240,53.5273
250.9544,53.5727
250.9650,53.6263
250.9650,53.9063
250.9544,53.9599
250.9240,54.0053
250.8786,54.0357
250.8250,54.0463
250.4850,54.0463
250.4315,54.0357
250.3860,54.0053
250.3557,53.9599
250.3450,53.9063
250.3450,53.6263
250.3557,53.5727
250.3860,53.5273
250.4315,53.4970
250.4850,53.4863
Z" /> 
<path style="fill:#02FFEE; fill-opacity:0.4000; stroke:none;fill-rule:evenodd;"
d="M 231.9300,34.7113
232.0161,34.7284
232.0891,34.7772
232.1379,34.8502
232.1550,34.9363
232.1550,35.3863
232.1379,35.4724
232.0891,35.5454
232.0161,35.5942
231.9300,35.6113
231.4300,35.6113
231.3439,35.5942
231.2709,35.5454
231.2222,35.4724
231.2050,35.3863
231.2050,34.9363
231.2222,34.8502
231.2709,34.7772
231.3439,34.7284
231.4300,34.7113
Z" /> 
<path style="fill:#02FFEE; fill-opacity:0.4000; stroke:none;fill-rule:evenodd;"
d="M 231.9300,36.2613
232.0161,36.2784
232.0891,36.3272
232.1379,36.4002
232.1550,36.4863
232.1550,36.9363
232.1379,37.0224
232.0891,37.0954
232.0161,37.1442
231.9300,37.1613
231.4300,37.1613
231.3439,37.1442
231.2709,37.0954
231.2222,37.0224
231.2050,36.9363
231.2050,36.4863
231.2222,36.4002
231.2709,36.3272
231.3439,36.2784
231.4300,36.2613
Z" /> 
<path style="fill:#02FFEE; fill-opacity:0.4000; stroke:none;fill-rule:evenodd;"
d="M 135.3675,36.6288
135.3485,36.7245
135.2943,36.8056
135.2132,36.8598
135.1175,36.8788
134.6175,36.8788
134.5219,36.8598
134.4408,36.8056
134.3866,36.7245
134.3675,36.6288
134.3675,35.6788
134.3866,35.5832
134.4408,35.5020
134.5219,35.4479
134.6175,35.4288
135.1175,35.4288
135.2132,35.4479
135.2943,35.5020
135.3485,35.5832
135.3675,35.6788
Z" /> 
<path style="fill:#02FFEE; fill-opacity:0.4000; stroke:none;fill-rule:evenodd;"
d="M 133.4675,36.6288
133.4485,36.7245
133.3943,36.8056
133.3132,36.8598
133.2175,36.8788
132.7175,36.8788
132.6219,36.8598
132.5408,36.8056
132.4866,36.7245
132.4675,36.6288
132.4675,35.6788
132.4866,35.5832
132.5408,35.5020
132.6219,35.4479
132.7175,35.4288
133.2175,35.4288
133.3132,35.4479
133.3943,35.5020
133.4485,35.5832
133.4675,35.6788
Z" /> 
<path style="fill:#02FFEE; fill-opacity:0.4000; stroke:none;fill-rule:evenodd;"
d="M 226.9350,24.6863
227.0211,24.7034
227.0941,24.7522
227.1429,24.8252
227.1600,24.9113
227.1600,25.3613
227.1429,25.4474
227.0941,25.5204
227.0211,25.5692
226.9350,25.5863
226.4350,25.5863
226.3489,25.5692
226.2759,25.5204
226.2272,25.4474
226.2100,25.3613
226.2100,24.9113
226.2272,24.8252
226.2759,24.7522
226.3489,24.7034
226.4350,24.6863
Z" /> 
<path style="fill:#02FFEE; fill-opacity:0.4000; stroke:none;fill-rule:evenodd;"
d="M 226.9350,26.2363
227.0211,26.2534
227.0941,26.3022
227.1429,26.3752
227.1600,26.4613
227.1600,26.9113
227.1429,26.9974
227.0941,27.0704
227.0211,27.1192
226.9350,27.1363
226.4350,27.1363
226.3489,27.1192
226.2759,27.0704
226.2272,26.9974
226.2100,26.9113
226.2100,26.4613
226.2272,26.3752
226.2759,26.3022
226.3489,26.2534
226.4350,26.2363
Z" /> 
<path style="fill:#02FFEE; fill-opacity:0.4000; stroke:none;fill-rule:evenodd;"
d="M 172.0525,84.8113
172.0765,84.8161
172.0967,84.8296
172.1103,84.8499
172.1150,84.8738
172.1150,85.1088
172.1103,85.1327
172.0967,85.1530
172.0765,85.1666
172.0525,85.1713
171.9275,85.1713
171.9036,85.1666
171.8833,85.1530
171.8698,85.1327
171.8650,85.1088
171.8650,84.8738
171.8698,84.8499
171.8833,84.8296
171.9036,84.8161
171.9275,84.8113
Z" /> 
<path style="fill:#02FFEE; fill-opacity:0.4000; stroke:none;fill-rule:evenodd;"
d="M 172.0525,83.9713
172.0765,83.9761
172.0967,83.9896
172.1103,84.0099
172.1150,84.0338
172.1150,84.2688
172.1103,84.2927
172.0967,84.3130
172.0765,84.3266
172.0525,84.3313
171.9275,84.3313
171.9036,84.3266
171.8833,84.3130
171.8698,84.2927
171.8650,84.2688
171.8650,84.0338
171.8698,84.0099
171.8833,83.9896
171.9036,83.9761
171.9275,83.9713
Z" /> 
<path style="fill:#02FFEE; fill-opacity:0.4000; stroke:none;fill-rule:evenodd;"
d="M 243.1800,40.9963
243.1694,41.0499
243.1390,41.0953
243.0936,41.1257
243.0400,41.1363
242.7600,41.1363
242.7065,41.1257
242.6610,41.0953
242.6307,41.0499
242.6200,40.9963
242.6200,40.6563
242.6307,40.6027
242.6610,40.5573
242.7065,40.5270
242.7600,40.5163
243.0400,40.5163
243.0936,40.5270
243.1390,40.5573
243.1694,40.6027
243.1800,40.6563
Z" /> 
<path style="fill:#02FFEE; fill-opacity:0.4000; stroke:none;fill-rule:evenodd;"
d="M 242.2200,40.9963
242.2094,41.0499
242.1790,41.0953
242.1336,41.1257
242.0800,41.1363
241.8000,41.1363
241.7465,41.1257
241.7010,41.0953
241.6707,41.0499
241.6600,40.9963
241.6600,40.6563
241.6707,40.6027
241.7010,40.5573
241.7465,40.5270
241.8000,40.5163
242.0800,40.5163
242.1336,40.5270
242.1790,40.5573
242.2094,40.6027
242.2200,40.6563
Z" /> 
<path style="fill:#02FFEE; fill-opacity:0.4000; stroke:none;fill-rule:evenodd;"
d="M 243.7250,52.5163
243.7786,52.5270
243.8240,52.5573
243.8544,52.6027
243.8650,52.6563
243.8650,52.9363
243.8544,52.9899
243.8240,53.0353
243.7786,53.0657
243.7250,53.0763
243.3850,53.0763
243.3315,53.0657
243.2860,53.0353
243.2557,52.9899
243.2450,52.9363
243.2450,52.6563
243.2557,52.6027
243.2860,52.5573
243.3315,52.5270
243.3850,52.5163
Z" /> 
<path style="fill:#02FFEE; fill-opacity:0.4000; stroke:none;fill-rule:evenodd;"
d="M 243.7250,53.4763
243.7786,53.4870
243.8240,53.5173
243.8544,53.5627
243.8650,53.6163
243.8650,53.8963
243.8544,53.9499
243.8240,53.9953
243.7786,54.0257
243.7250,54.0363
243.3850,54.0363
243.3315,54.0257
243.2860,53.9953
243.2557,53.9499
243.2450,53.8963
243.2450,53.6163
243.2557,53.5627
243.2860,53.5173
243.3315,53.4870
243.3850,53.4763
Z" /> 
<path style="fill:#02FFEE; fill-opacity:0.4000; stroke:none;fill-rule:evenodd;"
d="M 134.2925,32.4038
134.2735,32.4995
134.2193,32.5806
134.1382,32.6348
134.0425,32.6538
133.5425,32.6538
133.4469,32.6348
133.3658,32.5806
133.3116,32.4995
133.2925,32.4038
133.2925,31.4538
133.3116,31.3582
133.3658,31.2770
133.4469,31.2229
133.5425,31.2038
134.0425,31.2038
134.1382,31.2229
134.2193,31.2770
134.2735,31.3582
134.2925,31.4538
Z" /> 
<path style="fill:#02FFEE; fill-opacity:0.4000; stroke:none;fill-rule:evenodd;"
d="M 132.3925,32.4038
132.3735,32.4995
132.3193,32.5806
132.2382,32.6348
132.1425,32.6538
131.6425,32.6538
131.5469,32.6348
131.4658,32.5806
131.4116,32.4995
131.3925,32.4038
131.3925,31.4538
131.4116,31.3582
131.4658,31.2770
131.5469,31.2229
131.6425,31.2038
132.1425,31.2038
132.2382,31.2229
132.3193,31.2770
132.3735,31.3582
132.3925,31.4538
Z" /> 
</g>
<g style="fill:none; 
stroke:#D0D2CD; stroke-width:0.1000; stroke-opacity:1; 
stroke-linecap:round; stroke-linejoin:round;">
<path d="M256.2250 21.8763
L256.2250 93.8763
" />
<path d="M251.2250 98.8763 A5.0000 5.0000 0.0 0 0 256.2250 93.8763" />
<path d="M256.2251 21.8763 A5.0001 5.0001 0.0 0 0 251.2250 16.8763" />
<path d="M119.2250 16.8763
L251.2250 16.8763
" />
<path d="M114.2250 93.8763
L114.2250 21.8763
" />
<path d="M114.2251 93.8763 A4.9999 4.9999 0.0 0 0 119.2250 98.8763" />
<path d="M119.2250 16.8763 A5.0000 5.0000 0.0 0 0 114.2250 21.8763" />
<path d="M251.2250 98.8763
L119.2250 98.8763
" />
</g> 
</svg>
